<svg width="161" height="70" viewBox="0 0 161 70" fill="none" xmlns="http://www.w3.org/2000/svg">
<path d="M33.9443 9.79874L16.9725 0L0 9.79874V29.3954L16.9725 39.195V19.6113L33.9443 9.79874Z" fill="#D0A747"/>
<path d="M16.9727 39.1874L33.9452 29.3887L50.9169 39.1874L33.9452 49L16.9727 39.1874Z" fill="#D0A747"/>
<path d="M66.2124 1.87549C67.6716 1.86245 69.1213 2.11155 70.4925 2.61091C71.7855 3.07944 72.9578 3.83041 73.924 4.80916C74.9353 5.85378 75.7096 7.10405 76.1942 8.47483C76.7677 10.1347 77.0429 11.883 77.0073 13.6387C77.0222 15.2615 76.7979 16.8776 76.3415 18.4349C75.9377 19.826 75.2516 21.1189 74.326 22.2331C73.4075 23.313 72.2572 24.1717 70.9607 24.7454C69.462 25.3864 67.8431 25.6979 66.2136 25.6589H55.9531V1.87549H66.2124ZM65.847 21.2681C66.5949 21.2679 67.3376 21.1444 68.0453 20.9027C68.7657 20.6523 69.4164 20.2347 69.9443 19.6842C70.5419 19.0496 70.997 18.2947 71.2793 17.47C71.6362 16.3955 71.8047 15.2674 71.7772 14.1355C71.7887 13.0425 71.671 11.952 71.4266 10.8866C71.2247 9.98803 70.8334 9.14283 70.2789 8.40745C69.7254 7.70184 68.9949 7.15537 68.1617 6.82356C67.1251 6.42973 66.0213 6.24312 64.9129 6.27429H61.181V21.2681H65.847Z" fill="black"/>
<path d="M85.8706 1.87695V21.2696H97.466V25.6661H80.6416V1.87695H85.8706Z" fill="black"/>
<path d="M110.66 1.87549C112.119 1.86245 113.569 2.11155 114.94 2.61091C116.233 3.07944 117.405 3.83041 118.371 4.80916C119.382 5.85387 120.156 7.10413 120.641 8.47483C121.214 10.1347 121.489 11.883 121.454 13.6387C121.468 15.2615 121.244 16.8776 120.788 18.4349C120.384 19.826 119.698 21.1189 118.772 22.2331C117.854 23.3128 116.703 24.1715 115.407 24.7454C113.908 25.3864 112.289 25.6979 110.66 25.6589H100.399V1.87549H110.66ZM110.294 21.2681C111.042 21.2679 111.785 21.1444 112.493 20.9027C113.213 20.6523 113.864 20.2347 114.392 19.6842C114.989 19.0496 115.444 18.2947 115.727 17.47C116.084 16.3955 116.252 15.2674 116.225 14.1355C116.236 13.0425 116.118 11.952 115.874 10.8866C115.672 9.98803 115.281 9.14283 114.726 8.40745C114.173 7.70184 113.442 7.15537 112.609 6.82356C111.573 6.42973 110.469 6.24312 109.36 6.27429H105.628V21.2681H110.294Z" fill="black"/>
<path d="M61.1883 37.8298H57.7282C57.5988 37.8359 57.4696 37.8141 57.3493 37.7659C57.2291 37.7176 57.1207 37.644 57.0316 37.55C56.8503 37.3394 56.7574 37.0669 56.7724 36.7894C56.7778 36.3744 56.8264 35.9611 56.9174 35.5561H56.1934C56.0388 35.9721 55.9576 36.4119 55.9536 36.8557C55.9388 37.0895 55.9728 37.3238 56.0534 37.5438C56.134 37.7638 56.2594 37.9646 56.4218 38.1335C56.7901 38.4534 57.2698 38.6151 57.7567 38.5834H62.0071V31.2578H61.1883V37.8298Z" fill="black"/>
<path d="M59.9413 34.8836C59.7814 34.8965 59.5176 34.9296 59.1499 34.9829L58.9763 35.0069C58.8876 34.9692 58.8126 34.9052 58.7613 34.8235C58.7101 34.7418 58.6851 34.6464 58.6897 34.5501C58.6805 34.4826 58.6871 34.4139 58.709 34.3494C58.7309 34.2849 58.7675 34.2264 58.8159 34.1784C58.8643 34.1305 58.9232 34.0944 58.9879 34.0731C59.0526 34.0518 59.1213 34.0458 59.1887 34.0557C59.3567 34.0594 59.522 34.0983 59.6741 34.1699L59.8145 33.7371C59.6171 33.6398 59.3997 33.5897 59.1796 33.5909C58.9228 33.5796 58.6704 33.6606 58.4682 33.8193C58.3766 33.8985 58.3044 33.9976 58.2571 34.109C58.2098 34.2205 58.1886 34.3413 58.1952 34.4622C58.1953 34.5844 58.2268 34.7045 58.2868 34.8109C58.3469 34.9173 58.4333 35.0065 58.5378 35.0697L58.0811 35.1359V35.579C58.6936 35.4529 59.3153 35.3766 59.9401 35.3506L59.9413 34.8836Z" fill="black"/>
<path d="M75.8614 33.8093C75.5513 33.799 75.2428 33.8589 74.9591 33.9844C74.6754 34.11 74.4236 34.298 74.2227 34.5344C73.7919 35.0557 73.569 35.7178 73.5969 36.3935C73.5726 36.892 73.683 37.3879 73.9166 37.8289H69.4162C69.1615 37.8402 68.9128 37.7503 68.7242 37.5789C68.6349 37.4917 68.5653 37.3865 68.5198 37.2704C68.4743 37.1542 68.454 37.0297 68.4604 36.9051V31.2559H67.6028V37.8278H66.3147L65.0722 32.5554H64.1769L65.4194 37.8278H63.2588V38.5815H68.4558V38.0311C68.5443 38.1956 68.6763 38.3326 68.8374 38.4271C68.9986 38.5215 69.1826 38.5698 69.3694 38.5666V38.5815H75.4663C76.1439 38.6064 76.8059 38.3734 77.3185 37.9294C77.5649 37.7021 77.7582 37.4233 77.8847 37.1129C78.0112 36.8024 78.0678 36.4679 78.0505 36.1331C78.0691 35.8214 78.0248 35.5091 77.9202 35.2148C77.8157 34.9206 77.653 34.6503 77.4418 34.4202C77.2338 34.2163 76.9863 34.0569 76.7146 33.9518C76.4428 33.8468 76.1525 33.7983 75.8614 33.8093ZM76.7178 37.3493C76.5543 37.5095 76.3597 37.6345 76.146 37.7166C75.9323 37.7987 75.7041 37.8361 75.4754 37.8266H74.7902C74.5316 37.3946 74.412 36.8935 74.4476 36.3912C74.4224 35.9111 74.564 35.437 74.8485 35.0494C74.9654 34.8927 75.1176 34.7658 75.2928 34.6791C75.4681 34.5924 75.6613 34.5483 75.8568 34.5504C76.0393 34.5442 76.2209 34.5793 76.388 34.6531C76.555 34.7268 76.7033 34.8373 76.8218 34.9763C77.0787 35.2998 77.209 35.7057 77.1883 36.1183C77.1976 36.3454 77.1602 36.572 77.0785 36.7841C76.9968 36.9963 76.8725 37.1894 76.7133 37.3516L76.7178 37.3493Z" fill="black"/>
<path d="M81.2012 31.8558V31.3853C80.969 31.4074 80.7056 31.4405 80.411 31.4847L80.2363 31.5132C80.1481 31.4742 80.0733 31.4101 80.0213 31.3288C79.9693 31.2476 79.9424 31.1529 79.9439 31.0564C79.9351 30.9886 79.942 30.9196 79.9643 30.8549C79.9867 30.7902 80.0237 30.7316 80.0725 30.6837C80.1213 30.6357 80.1806 30.5998 80.2457 30.5787C80.3108 30.5576 80.3799 30.5518 80.4475 30.562C80.6147 30.5604 80.7797 30.5996 80.9283 30.6762L81.0733 30.2388C80.8755 30.1431 80.6582 30.0947 80.4384 30.0972C80.1792 30.0835 79.9238 30.1647 79.7201 30.3256C79.6308 30.4053 79.5605 30.504 79.5145 30.6145C79.4684 30.725 79.4478 30.8444 79.454 30.9639C79.4526 31.0864 79.4835 31.2071 79.5437 31.3137C79.6038 31.4204 79.6911 31.5093 79.7966 31.5714L79.3398 31.6377V32.0853C79.5305 32.0476 79.864 31.9997 80.3356 31.9392C80.8073 31.8786 81.0939 31.8558 81.2012 31.8558Z" fill="black"/>
<path d="M83.362 36.7141C83.362 37.4579 83.0217 37.8298 82.3411 37.8298H82.0773L80.8349 32.5574H79.9396L81.1821 37.8298H79.0215V38.5834H82.4348C82.6726 38.595 82.9103 38.5581 83.1335 38.4751C83.3567 38.392 83.5607 38.2646 83.7332 38.1004C83.8969 37.9327 84.0244 37.7331 84.1079 37.5141C84.1914 37.2951 84.229 37.0613 84.2185 36.8271V31.2578H83.3609V36.7141H83.362Z" fill="black"/>
<path d="M86.7141 31.2578H85.8564V38.5834H86.7141V31.2578Z" fill="black"/>
<path d="M91.3481 34.5733C91.1038 34.8053 90.9126 35.0874 90.7877 35.4002C90.6627 35.713 90.6069 36.0492 90.6241 36.3856C90.6042 36.6813 90.6437 36.9779 90.7404 37.258C90.8371 37.5381 90.989 37.796 91.1871 38.0163C91.3993 38.2144 91.6495 38.3672 91.9226 38.4653C92.1957 38.5635 92.4859 38.605 92.7756 38.5873H93.7177V38.8648C93.7263 39.0394 93.697 39.2137 93.6319 39.3759C93.5669 39.5381 93.4676 39.6843 93.3409 39.8046C93.0567 40.0457 92.6908 40.1683 92.3188 40.1472C91.8378 40.1296 91.3679 39.9973 90.9485 39.7612L90.5625 40.4064C91.0791 40.7373 91.6814 40.9092 92.2948 40.9009C92.8934 40.9387 93.4831 40.7412 93.9381 40.3505C94.1381 40.1503 94.2935 39.91 94.394 39.6455C94.4946 39.381 94.5381 39.0982 94.5216 38.8157V33.9053H93.2655C92.5641 33.8725 91.8773 34.1119 91.3481 34.5733ZM93.7063 34.6579V37.8279H92.8019C91.9203 37.8279 91.4795 37.343 91.4795 36.3731C91.4671 36.1424 91.5027 35.9116 91.5841 35.6954C91.6655 35.4792 91.7908 35.2822 91.9522 35.1169C92.3205 34.7931 92.8024 34.6288 93.2917 34.6601H93.7063V34.6579Z" fill="black"/>
<path d="M101.97 40.416C101.637 40.416 101.471 40.5964 101.471 40.9573C101.471 41.3182 101.637 41.4971 101.97 41.494C102.306 41.494 102.474 41.3151 102.473 40.9573C102.473 40.5995 102.305 40.4191 101.97 40.416Z" fill="black"/>
<path d="M100.492 40.416C100.16 40.416 99.9932 40.5964 99.9932 40.9573C99.9932 41.3182 100.16 41.4971 100.492 41.494C100.828 41.494 100.996 41.3151 100.996 40.9573C100.996 40.5995 100.828 40.4191 100.492 40.416Z" fill="black"/>
<path d="M113.886 33.8105C112.725 33.8105 111.835 34.5338 111.216 35.9803V34.1965H110.397V37.8302H106.508V33.9088H105.341C103.666 33.9088 102.828 34.8143 102.828 36.6255V37.8736C102.828 38.724 102.265 39.1492 101.137 39.1492H99.9655C99.8361 39.1552 99.707 39.1333 99.5868 39.0851C99.4666 39.0368 99.3582 38.9633 99.2689 38.8694C99.0874 38.6589 98.9945 38.3864 99.0097 38.1089C99.014 37.6925 99.061 37.2777 99.1501 36.871H98.4296C98.2725 37.2879 98.1913 37.7296 98.1898 38.1751C98.1753 38.4083 98.2093 38.642 98.2895 38.8615C98.3696 39.081 98.4943 39.2816 98.6557 39.4507C98.8376 39.611 99.0493 39.7339 99.2788 39.8123C99.5082 39.8907 99.7509 39.923 99.9929 39.9074H101.135C101.803 39.9481 102.465 39.7595 103.011 39.373C103.232 39.1962 103.408 38.9695 103.525 38.7114C103.642 38.4534 103.696 38.1714 103.683 37.8885V36.6643C103.683 35.3335 104.254 34.6682 105.396 34.6682H105.646V38.5942H111.21V37.8508C111.285 38.0562 111.418 38.2357 111.592 38.3676C111.767 38.4995 111.975 38.5782 112.194 38.5942H116.088V36.268C116.091 34.6297 115.358 33.8105 113.886 33.8105ZM115.274 37.8302H112.167C112.051 37.84 111.934 37.8261 111.823 37.7893C111.712 37.7524 111.61 37.6934 111.523 37.6159C111.436 37.5383 111.365 37.4439 111.315 37.3382C111.266 37.2325 111.238 37.1178 111.234 37.0012C111.9 35.3819 112.726 34.5722 113.711 34.5722C114.754 34.5722 115.275 35.1482 115.274 36.3V37.8291V37.8302Z" fill="black"/>
<path d="M113.17 33.0194C113.503 33.0194 113.669 32.8405 113.669 32.4827C113.669 32.1249 113.503 31.9445 113.17 31.9414C112.837 31.9414 112.671 32.1218 112.671 32.4827C112.671 32.8435 112.837 33.0225 113.17 33.0194Z" fill="black"/>
<path d="M118.588 31.2578H117.731V38.5834H118.588V31.2578Z" fill="black"/>
<path d="M120.99 38.8579C121.006 39.1873 120.917 39.5133 120.738 39.7898C120.664 39.9009 120.563 39.9916 120.445 40.0533C120.327 40.115 120.195 40.1457 120.062 40.1426C119.736 40.1446 119.418 40.0386 119.158 39.8411L118.772 40.4293C119.139 40.7361 119.603 40.9014 120.081 40.8952C120.322 40.9086 120.562 40.8653 120.783 40.7687C121.004 40.672 121.199 40.5249 121.352 40.339C121.673 39.8958 121.831 39.3552 121.8 38.8088V33.8984H120.991V38.8579H120.99Z" fill="black"/>
<path d="M127.392 36.7141C127.392 37.4579 127.052 37.8298 126.371 37.8298H126.108L124.865 32.5574H123.97L125.212 37.8298H123.052V38.5834H126.465C126.703 38.595 126.941 38.5581 127.164 38.4751C127.387 38.392 127.591 38.2646 127.763 38.1004C127.927 37.9327 128.055 37.7331 128.138 37.5141C128.222 37.2951 128.259 37.0613 128.249 36.8271V31.2578H127.391V36.7141H127.392Z" fill="black"/>
<path d="M125.231 31.8558V31.3853C124.999 31.4074 124.736 31.4405 124.441 31.4847L124.267 31.5132C124.178 31.4742 124.104 31.4101 124.052 31.3288C124 31.2476 123.973 31.1529 123.974 31.0564C123.965 30.9886 123.972 30.9196 123.995 30.8549C124.017 30.7902 124.054 30.7316 124.103 30.6837C124.152 30.6357 124.211 30.5998 124.276 30.5787C124.341 30.5576 124.41 30.5518 124.478 30.562C124.645 30.5604 124.81 30.5996 124.959 30.6762L125.104 30.2388C124.906 30.1431 124.688 30.0947 124.469 30.0972C124.209 30.0835 123.954 30.1647 123.75 30.3256C123.661 30.4053 123.591 30.504 123.545 30.6145C123.499 30.725 123.478 30.8444 123.484 30.9639C123.483 31.0864 123.514 31.2071 123.574 31.3137C123.634 31.4204 123.721 31.5093 123.827 31.5714L123.37 31.6377V32.0853C123.561 32.0476 123.894 31.9997 124.366 31.9392C124.838 31.8786 125.124 31.8558 125.231 31.8558Z" fill="black"/>
<path d="M130.744 31.2578H129.887V38.5834H130.744V31.2578Z" fill="black"/>
<path d="M136.102 33.0194C136.437 33.0194 136.605 32.8405 136.605 32.4827C136.605 32.1249 136.437 31.9445 136.102 31.9414C135.768 31.9414 135.602 32.1218 135.603 32.4827C135.6 32.8413 135.768 33.0194 136.102 33.0194Z" fill="black"/>
<path d="M137.58 33.0194C137.913 33.0194 138.079 32.8405 138.079 32.4827C138.079 32.1249 137.913 31.9445 137.58 31.9414C137.243 31.9414 137.075 32.1218 137.075 32.4827C137.075 32.8413 137.243 33.0194 137.58 33.0194Z" fill="black"/>
<path d="M138.446 34.6011C138.261 34.3563 138.022 34.1575 137.748 34.0204C137.474 33.8833 137.171 33.8116 136.864 33.8109C136.552 33.805 136.242 33.8722 135.959 34.0069C135.677 34.1417 135.43 34.3405 135.238 34.5874C134.811 35.1097 134.585 35.7674 134.6 36.442C134.579 36.7444 134.621 37.0478 134.722 37.3336C134.823 37.6194 134.982 37.8814 135.188 38.1035C135.411 38.3031 135.672 38.4563 135.955 38.5544C136.237 38.6524 136.537 38.6932 136.836 38.6745C137.141 38.72 137.453 38.6938 137.746 38.598C138.04 38.5022 138.307 38.3394 138.527 38.1225C138.747 37.9055 138.913 37.6404 139.012 37.3482C139.112 37.0559 139.142 36.7445 139.1 36.4385C139.109 35.7675 138.877 35.1155 138.446 34.6011ZM136.855 37.9391C135.929 37.9391 135.467 37.4442 135.467 36.4545C135.444 35.9664 135.584 35.4846 135.864 35.0842C135.975 34.9238 136.123 34.7923 136.295 34.7009C136.467 34.6095 136.659 34.5609 136.854 34.5589C137.049 34.557 137.241 34.602 137.415 34.69C137.589 34.778 137.739 34.9066 137.853 35.0648C138.128 35.4746 138.262 35.9629 138.235 36.4557C138.234 37.4446 137.774 37.9391 136.855 37.9391Z" fill="black"/>
<path d="M147.825 32.6421C147.737 32.6032 147.662 32.5391 147.61 32.4579C147.558 32.3766 147.531 32.2818 147.532 32.1853C147.524 32.1174 147.531 32.0483 147.553 31.9835C147.575 31.9187 147.612 31.86 147.661 31.8121C147.71 31.7641 147.77 31.7282 147.835 31.7072C147.9 31.6861 147.969 31.6805 148.037 31.6909C148.204 31.6892 148.369 31.7284 148.517 31.8051L148.663 31.3677C148.465 31.272 148.248 31.2235 148.028 31.2261C147.769 31.2124 147.514 31.2936 147.311 31.4545C147.222 31.5342 147.151 31.6329 147.105 31.7434C147.059 31.8539 147.039 31.9733 147.045 32.0928C147.043 32.2153 147.074 32.336 147.134 32.4426C147.195 32.5493 147.282 32.6382 147.387 32.7003L146.931 32.7666V33.2142C147.123 33.1762 147.454 33.1274 147.926 33.0681C148.399 33.0075 148.688 32.979 148.796 32.979V32.5085C148.563 32.5306 148.299 32.5637 148.004 32.6079L147.825 32.6421Z" fill="black"/>
<path d="M147.555 37.8315H142.979C142.724 37.8427 142.476 37.7528 142.287 37.5814C142.198 37.494 142.129 37.3889 142.083 37.2727C142.038 37.1566 142.017 37.0322 142.023 36.9076V33.9089H141.215V38.8592C141.23 39.1886 141.142 39.5146 140.962 39.7911C140.889 39.9022 140.788 39.9929 140.67 40.0546C140.552 40.1163 140.42 40.147 140.286 40.1439C139.96 40.1458 139.643 40.0399 139.383 39.8424L138.997 40.4305C139.364 40.7374 139.828 40.9027 140.306 40.8965C140.546 40.9099 140.787 40.8666 141.008 40.7699C141.228 40.6733 141.423 40.5262 141.577 40.3403C141.898 39.8971 142.056 39.3565 142.024 38.8101V38.029C142.113 38.1934 142.245 38.3302 142.406 38.4247C142.567 38.5191 142.751 38.5675 142.938 38.5646V38.5794H148.409V33.9043H147.551V37.8315H147.555Z" fill="black"/>
<path d="M150.908 31.2578H150.051V38.5834H150.908V31.2578Z" fill="black"/>
<path d="M153.445 33.6094L153.135 34.3436C154.17 34.824 154.851 35.9869 155.178 37.8323H151.961V38.586H156V37.8517C155.611 35.5381 154.76 34.124 153.445 33.6094Z" fill="black"/>
<path d="M55.9521 43.4454C56.4998 43.3626 57.0529 43.3206 57.6068 43.3198C58.4872 43.2487 59.3613 43.5176 60.0495 44.0712C60.3398 44.3498 60.5661 44.688 60.7128 45.0627C60.8595 45.4373 60.9231 45.8393 60.8991 46.2409C60.9196 46.6699 60.8532 47.0986 60.7038 47.5013C60.5545 47.904 60.3253 48.2723 60.0301 48.5842C59.2892 49.2107 58.3325 49.5222 57.3647 49.4521C56.8929 49.4547 56.4213 49.4307 55.9521 49.3802V43.4489V43.4454ZM56.7298 48.7772C56.9904 48.8133 57.2536 48.8282 57.5166 48.8217C57.8626 48.8615 58.213 48.8227 58.5419 48.7083C58.8708 48.594 59.1697 48.4069 59.4164 48.1611C59.663 47.9154 59.8511 47.6171 59.9667 47.2886C60.0822 46.9602 60.1222 46.6099 60.0837 46.2638C60.1133 45.9407 60.0693 45.6151 59.9552 45.3114C59.8411 45.0077 59.6598 44.7337 59.4249 44.51C59.19 44.2863 58.9075 44.1186 58.5986 44.0195C58.2897 43.9203 57.9624 43.8924 57.6411 43.9376C57.3346 43.9325 57.0285 43.9593 56.7275 44.0176L56.7298 48.7772Z" fill="black"/>
<path d="M62.6875 43.3672V46.9369C62.6875 48.2878 63.2859 48.86 64.091 48.86C64.9852 48.86 65.5584 48.2696 65.5584 46.9369V43.3672H66.3452V46.8821C66.3452 48.7332 65.37 49.4937 64.0613 49.4937C62.8269 49.4937 61.8916 48.7869 61.8916 46.9175V43.3672H62.6807H62.6875Z" fill="black"/>
<path d="M67.6943 43.4447C68.1632 43.358 68.6392 43.316 69.1161 43.3191C69.7025 43.2651 70.2891 43.4205 70.7719 43.7576C70.9355 43.8811 71.0666 44.0425 71.1539 44.2279C71.2412 44.4133 71.2822 44.6172 71.2732 44.8219C71.2633 45.1215 71.1596 45.4105 70.9766 45.648C70.7936 45.8855 70.5407 46.0595 70.2534 46.1454V46.1637C70.6029 46.2347 70.9173 46.4237 71.1439 46.699C71.3705 46.9742 71.4956 47.3191 71.4982 47.6756C71.5018 47.9015 71.4583 48.1255 71.3704 48.3336C71.2825 48.5416 71.1521 48.729 70.9877 48.8838C70.3858 49.3212 69.6439 49.5216 68.9037 49.4468C68.5002 49.4496 68.0969 49.4256 67.6966 49.3749V43.4447H67.6943ZM68.472 45.9136H69.1777C70.0011 45.9136 70.4841 45.4842 70.4841 44.903C70.4841 44.1973 69.9474 43.9186 69.1595 43.9186C68.9298 43.9127 68.7002 43.9307 68.4743 43.9723V45.9136H68.472ZM68.472 48.8028C68.6885 48.8316 68.9069 48.8434 69.1252 48.8382C69.9246 48.8382 70.6714 48.5424 70.6714 47.6665C70.6714 46.8432 69.9657 46.504 69.1149 46.504H68.472V48.805V48.8028Z" fill="black"/>
<path d="M73.5148 47.498L72.8891 49.3947H72.084L74.1338 43.3652H75.0725L77.128 49.3947H76.2966L75.6526 47.498H73.5148ZM75.4927 46.8893L74.9012 45.1547C74.7676 44.7607 74.6728 44.4033 74.5883 44.0538H74.57C74.4809 44.4113 74.3827 44.7778 74.2662 45.1444L73.6747 46.8893H75.4927Z" fill="black"/>
<path d="M78.7933 43.3652V49.3947H78.0156V43.3652H78.7933Z" fill="black"/>
<path d="M82.0469 43.3652H82.8246V48.7415H85.4008V49.3947H82.0469V43.3652Z" fill="black"/>
<path d="M87.2424 47.498L86.6166 49.3947H85.8115L87.8613 43.3652H88.8L90.8555 49.3947H90.023L89.3801 47.498H87.2424ZM89.2202 46.8893L88.6298 45.1547C88.4962 44.7607 88.4015 44.4033 88.317 44.0538H88.2987C88.2096 44.4113 88.1114 44.7778 87.9949 45.1444L87.4034 46.8882L89.2202 46.8893Z" fill="black"/>
<path d="M91.7396 49.3936V43.3652H92.5881L94.5214 46.4154C94.9243 47.0442 95.2856 47.6988 95.6028 48.375L95.6211 48.3658C95.5491 47.5608 95.5309 46.8265 95.5309 45.8878V43.3652H96.264V49.3947H95.4772L93.5633 46.3354C93.1475 45.688 92.7711 45.0161 92.4362 44.3233L92.4088 44.3325C92.4533 45.093 92.4716 45.817 92.4716 46.8196V49.3959H91.7373L91.7396 49.3936Z" fill="black"/>
<path d="M97.625 43.4454C98.1727 43.3626 98.7258 43.3206 99.2797 43.3198C100.16 43.2487 101.034 43.5176 101.722 44.0712C102.013 44.3498 102.239 44.688 102.386 45.0627C102.532 45.4373 102.596 45.8393 102.572 46.2409C102.592 46.6699 102.526 47.0986 102.377 47.5013C102.227 47.904 101.998 48.2723 101.703 48.5842C100.962 49.2107 100.005 49.5222 99.0376 49.4521C98.5657 49.4548 98.0941 49.4308 97.625 49.3802V43.4454ZM98.4027 48.7772C98.6633 48.8133 98.9265 48.8282 99.1895 48.8217C99.5354 48.8615 99.8859 48.8227 100.215 48.7083C100.544 48.594 100.843 48.4069 101.089 48.1611C101.336 47.9154 101.524 47.6171 101.64 47.2886C101.755 46.9602 101.795 46.6099 101.757 46.2638C101.786 45.9407 101.742 45.6151 101.628 45.3114C101.514 45.0077 101.333 44.7337 101.098 44.51C100.863 44.2863 100.58 44.1186 100.271 44.0195C99.9625 43.9203 99.6352 43.8924 99.314 43.9376C99.0075 43.9325 98.7013 43.9593 98.4004 44.0176L98.4027 48.7772Z" fill="black"/>
<path d="M105.476 43.4454C106.023 43.3626 106.576 43.3206 107.13 43.3198C108.011 43.2487 108.885 43.5176 109.573 44.0712C109.863 44.3498 110.09 44.688 110.236 45.0627C110.383 45.4373 110.447 45.8393 110.423 46.2409C110.443 46.6699 110.377 47.0986 110.227 47.5013C110.078 47.904 109.849 48.2724 109.554 48.5842C108.813 49.2107 107.856 49.5222 106.888 49.4521C106.416 49.4547 105.945 49.4307 105.476 49.3802V43.4489V43.4454ZM106.254 48.7772C106.515 48.8133 106.778 48.8282 107.041 48.8217C107.387 48.8615 107.738 48.8227 108.067 48.7083C108.395 48.594 108.694 48.4069 108.941 48.1611C109.188 47.9154 109.376 47.6171 109.491 47.2886C109.607 46.9602 109.647 46.6099 109.608 46.2638C109.638 45.9407 109.594 45.6151 109.48 45.3114C109.366 45.0077 109.184 44.7337 108.949 44.51C108.715 44.2863 108.432 44.1186 108.123 44.0195C107.814 43.9203 107.487 43.8924 107.166 43.9376C106.859 43.9325 106.553 43.9593 106.252 44.0176L106.254 48.7772Z" fill="black"/>
<path d="M114.554 46.5627H112.21V48.7324H114.822V49.3856H111.432V43.3652H114.687V44.0184H112.209V45.9232H114.553V46.5673L114.554 46.5627Z" fill="black"/>
<path d="M115.83 43.4397C116.324 43.3602 116.824 43.322 117.324 43.3255C117.93 43.2795 118.532 43.4579 119.015 43.8268C119.189 43.9855 119.325 44.1801 119.416 44.397C119.507 44.6138 119.55 44.8479 119.541 45.0829C119.553 45.3177 119.518 45.5525 119.438 45.7736C119.358 45.9947 119.236 46.1978 119.077 46.3711C118.83 46.5999 118.54 46.7766 118.223 46.8904C117.907 47.0042 117.571 47.0529 117.235 47.0334C117.025 47.0402 116.815 47.0222 116.609 46.9797V49.3949H115.831V43.4397H115.83ZM116.609 46.3471C116.82 46.3947 117.036 46.4158 117.252 46.4099C118.191 46.4099 118.764 45.9531 118.764 45.1218C118.764 44.3224 118.201 43.941 117.342 43.941C117.096 43.9339 116.849 43.955 116.608 44.0038V46.3482L116.609 46.3471Z" fill="black"/>
<path d="M120.812 47.498L120.186 49.3947H119.381L121.431 43.3652H122.369L124.425 49.3947H123.592L122.949 47.498H120.812ZM122.79 46.8893L122.198 45.1547C122.064 44.7607 121.97 44.4033 121.885 44.0538H121.863C121.774 44.4113 121.676 44.7778 121.56 45.1444L120.968 46.8882H122.785L122.79 46.8893Z" fill="black"/>
<path d="M125.312 43.445C125.804 43.357 126.304 43.315 126.805 43.3194C127.428 43.2558 128.052 43.4318 128.55 43.8115C128.706 43.9574 128.828 44.1346 128.91 44.3315C128.992 44.5284 129.031 44.7404 129.024 44.9535C129.028 45.2986 128.92 45.6356 128.715 45.9133C128.51 46.191 128.22 46.3941 127.889 46.4917V46.5214C128.13 46.6284 128.339 46.7972 128.495 47.0107C128.65 47.2242 128.746 47.4749 128.774 47.7376C128.88 48.3019 129.036 48.8557 129.24 49.3923H128.435C128.255 48.9262 128.121 48.444 128.033 47.9523C127.855 47.1198 127.531 46.8103 126.826 46.7795H126.091V49.3911H125.314V43.4438L125.312 43.445ZM126.089 46.1856H126.889C127.72 46.1856 128.247 45.7289 128.247 45.0437C128.247 44.266 127.684 43.9257 126.861 43.9166C126.603 43.9094 126.345 43.9336 126.093 43.9885L126.089 46.1856Z" fill="black"/>
<path d="M131.348 44.0276H129.514V43.3652H133.978V44.0276H132.13V49.3947H131.343V44.0276H131.348Z" fill="black"/>
<path d="M139.727 46.7454C139.682 45.9038 139.627 44.8932 139.638 44.1418H139.61C139.405 44.8486 139.153 45.6 138.85 46.4314L137.785 49.357H137.195L136.22 46.4862C135.933 45.6366 135.692 44.8578 135.522 44.1429H135.505C135.487 44.8943 135.442 45.9049 135.391 46.8094L135.23 49.3947H134.487L134.908 43.3652H135.9L136.928 46.2818C137.179 47.024 137.384 47.6852 137.536 48.3122H137.564C137.716 47.7035 137.93 47.0423 138.199 46.2818L139.272 43.3652H140.264L140.64 49.3947H139.881L139.727 46.7454Z" fill="black"/>
<path d="M144.958 46.5627H142.615V48.7324H145.232V49.3856H141.842V43.3652H145.097V44.0184H142.621V45.9232H144.964V46.5673L144.958 46.5627Z" fill="black"/>
<path d="M146.235 49.3936V43.3652H147.083L149.016 46.4154C149.419 47.0442 149.781 47.6988 150.098 48.375L150.116 48.3658C150.044 47.5608 150.026 46.8265 150.026 45.8878V43.3652H150.76V49.3947H149.973L148.059 46.3354C147.644 45.688 147.267 45.0161 146.932 44.3233L146.905 44.3325C146.949 45.093 146.968 45.817 146.968 46.8196V49.3959H146.233L146.235 49.3936Z" fill="black"/>
<path d="M153.266 44.0276H151.432V43.3652H155.896V44.0276H154.052V49.3947H153.266V44.0276Z" fill="black"/>
<path d="M129.973 13.2988C129.457 13.2988 129.199 13.5786 129.199 14.1382C129.199 14.6977 129.457 14.9752 129.973 14.9707C130.489 14.9707 130.747 14.6932 130.748 14.1382C130.748 13.5832 130.49 13.3034 129.973 13.2988Z" fill="black"/>
<path d="M133.244 11.0293H127.877C127.676 11.0349 127.477 10.9904 127.298 10.8999C127.118 10.8094 126.964 10.6757 126.849 10.5109C126.581 10.1236 126.446 9.6593 126.466 9.18848C126.469 8.46963 126.546 7.75299 126.694 7.0496H125.497C125.248 7.77284 125.122 8.533 125.125 9.2981C125.105 9.68374 125.162 10.0695 125.292 10.433C125.422 10.7965 125.624 11.1304 125.885 11.4153C126.151 11.6796 126.47 11.8855 126.821 12.0199C127.172 12.1544 127.547 12.2145 127.922 12.1964H134.515V4.94727H133.246V11.0293H133.244Z" fill="black"/>
<path d="M145.205 12.7598C144.689 12.7598 144.431 13.0395 144.431 13.5991C144.43 14.1587 144.688 14.4361 145.205 14.4316C145.726 14.4316 145.987 14.1541 145.986 13.5991C145.985 13.0441 145.725 12.7643 145.205 12.7598Z" fill="black"/>
<path d="M147.496 12.7598C146.974 12.7598 146.714 13.0395 146.715 13.5991C146.716 14.1587 146.976 14.4361 147.496 14.4316C148.011 14.4316 148.269 14.1541 148.27 13.5991C148.271 13.0441 148.013 12.7643 147.496 12.7598Z" fill="black"/>
<path d="M154.839 5.74218C153.962 5.16006 152.92 4.87944 151.87 4.94282H151.169C151.617 4.11498 152.23 3.38692 152.968 2.8028C153.775 2.11665 154.686 1.56208 155.666 1.15953L155.192 0.0175781C154.044 0.489578 152.994 1.16897 152.092 2.02171C151.191 2.82362 150.454 3.79326 149.923 4.87659V6.09505H151.864C153.7 6.09505 154.617 6.81828 154.617 8.26476V11.0169H148.608C148.216 11.0361 147.831 10.8999 147.538 10.6377C147.401 10.5019 147.295 10.3388 147.225 10.159C147.155 9.97915 147.124 9.78666 147.133 9.59399V4.94739H145.805V11.0294H142.754V4.94739H140.796C139.711 4.89558 138.648 5.26364 137.827 5.97515C137.448 6.33474 137.151 6.77209 136.957 7.25718C136.763 7.74228 136.676 8.26364 136.702 8.78549C136.671 9.24418 136.733 9.70443 136.883 10.1391C137.032 10.5737 137.268 10.9739 137.575 11.3161C137.904 11.6225 138.293 11.8586 138.716 12.01C139.14 12.1614 139.59 12.2248 140.039 12.1965H141.497V12.627C141.511 12.8974 141.465 13.1675 141.365 13.4187C141.264 13.67 141.11 13.8966 140.914 14.083C140.474 14.459 139.907 14.6512 139.329 14.6197C138.586 14.5908 137.86 14.3857 137.212 14.0213L136.613 15.0217C137.414 15.5352 138.349 15.8017 139.3 15.7879C140.228 15.8459 141.142 15.5394 141.848 14.9338C142.158 14.6235 142.399 14.2514 142.555 13.8417C142.711 13.432 142.778 12.9939 142.754 12.5562V12.1976H147.134V11.3435C147.299 11.6357 147.546 11.8728 147.845 12.0248C148.144 12.1768 148.481 12.2369 148.814 12.1976H155.894V8.05806C155.92 7.61534 155.837 7.17304 155.653 6.76949C155.469 6.36594 155.19 6.01331 154.839 5.74218ZM141.478 11.0283H140.076C138.705 11.0283 138.02 10.2761 138.02 8.77178C138 8.4127 138.055 8.05335 138.181 7.71658C138.307 7.37981 138.502 7.07299 138.753 6.81562C139.325 6.31384 140.072 6.05921 140.831 6.10761H141.473V11.0294L141.478 11.0283Z" fill="black"/>
<path d="M130.327 25.0149C129.677 25.5247 128.864 25.7818 128.039 25.7388C127.214 25.6957 126.433 25.3554 125.839 24.7808C125.639 24.5847 125.47 24.3585 125.339 24.1105C125.215 23.8693 125.128 23.6111 125.08 23.3442C125.027 23.0534 124.996 22.7591 124.985 22.4638C124.972 22.1516 124.966 21.7169 124.966 21.1597C124.966 20.6024 124.972 20.1654 124.985 19.8487C124.996 19.5557 125.029 19.264 125.086 18.9763C125.138 18.7103 125.225 18.4526 125.346 18.21C125.473 17.961 125.64 17.7343 125.839 17.5385C126.435 16.9652 127.217 16.6254 128.042 16.5811C128.867 16.5369 129.681 16.7912 130.334 17.2976C130.935 17.8274 131.322 18.5583 131.422 19.3531H130.034C129.947 18.9199 129.725 18.5254 129.4 18.226C129.071 17.9404 128.645 17.7909 128.21 17.808C127.956 17.8065 127.704 17.8558 127.469 17.9531C127.247 18.0431 127.047 18.1789 126.881 18.3516C126.773 18.4672 126.681 18.597 126.608 18.7376C126.529 18.902 126.473 19.077 126.444 19.2572C126.4 19.506 126.373 19.7574 126.361 20.0097C126.344 20.3059 126.335 20.6899 126.335 21.1619C126.335 21.6339 126.344 22.0199 126.361 22.3199C126.373 22.5722 126.4 22.8236 126.444 23.0724C126.473 23.2479 126.526 23.4185 126.602 23.5795C126.676 23.7229 126.769 23.8548 126.881 23.9711C127.047 24.1442 127.247 24.2804 127.469 24.3708C127.704 24.4681 127.956 24.5174 128.21 24.5159C128.649 24.5335 129.079 24.3842 129.413 24.0979C129.737 23.7983 129.958 23.4038 130.045 22.9708H131.425C131.319 23.7629 130.929 24.4895 130.327 25.0149Z" fill="black"/>
<path d="M139.328 23.8871C139.171 24.2629 138.938 24.6021 138.643 24.8832C138.348 25.1643 137.998 25.3812 137.615 25.5201C137.206 25.6706 136.773 25.746 136.336 25.7428C135.902 25.7466 135.471 25.6711 135.064 25.5201C134.682 25.378 134.333 25.1605 134.037 24.8806C133.74 24.602 133.506 24.2633 133.351 23.8871C133.188 23.4886 133.106 23.0615 133.111 22.6309V16.6562H134.481V22.5681C134.467 22.8271 134.505 23.0863 134.591 23.3307C134.678 23.5751 134.813 23.7999 134.987 23.9922C135.163 24.1694 135.375 24.3076 135.608 24.3981C135.842 24.4886 136.091 24.5292 136.341 24.5175C136.592 24.5289 136.843 24.4882 137.077 24.3977C137.311 24.3073 137.524 24.1692 137.702 23.9922C137.878 23.8009 138.014 23.5764 138.102 23.3319C138.19 23.0873 138.229 22.8277 138.215 22.5681V16.6562H139.585V22.6309C139.586 23.0628 139.499 23.4903 139.328 23.8871Z" fill="black"/>
<path d="M147.412 25.0033C146.86 25.465 146.156 25.7022 145.437 25.668H141.791V16.6545H145.298C146.021 16.6155 146.731 16.8532 147.285 17.3191C147.531 17.5485 147.724 17.8287 147.851 18.1403C147.978 18.4519 148.035 18.7874 148.019 19.1234C148.028 19.5504 147.902 19.9692 147.658 20.3202C147.449 20.636 147.152 20.8844 146.804 21.0351C147.194 21.1882 147.531 21.4522 147.773 21.7945C148.041 22.1845 148.176 22.6506 148.159 23.1237C148.179 23.4726 148.123 23.8217 147.994 24.1465C147.865 24.4713 147.666 24.7638 147.412 25.0033ZM146.253 18.2179C145.948 17.9815 145.569 17.8624 145.184 17.8821H143.158V20.4652H145.184C145.569 20.4854 145.948 20.3662 146.253 20.1295C146.379 20.0045 146.479 19.8556 146.548 19.6916C146.616 19.5275 146.652 19.3515 146.652 19.1737C146.652 18.9959 146.616 18.8198 146.548 18.6558C146.479 18.4917 146.379 18.3429 146.253 18.2179ZM146.399 22.0731C146.251 21.9413 146.079 21.84 145.893 21.7749C145.706 21.7098 145.508 21.6823 145.311 21.694H143.158V24.4404H145.306C145.504 24.452 145.702 24.4238 145.889 24.3575C146.076 24.2912 146.248 24.1882 146.394 24.0544C146.524 23.9245 146.626 23.7691 146.694 23.5979C146.761 23.4268 146.793 23.2436 146.786 23.0597C146.794 22.8772 146.763 22.6951 146.697 22.525C146.63 22.3549 146.529 22.2017 146.399 22.0731Z" fill="black"/>
<path d="M150.183 25.6677V16.6543H155.943V17.8819H151.55V20.5187H155.296V21.7337H151.55V24.4436H155.943V25.6711L150.183 25.6677Z" fill="black"/>
</svg>
