<svg width="532" height="149" viewBox="0 0 532 149" fill="none" xmlns="http://www.w3.org/2000/svg">
<g clip-path="url(#clip0_2106_163)">
<path d="M164.3 99L150.3 73H148.2V99H128.6V28.5H159.5C165.167 28.5 169.967 29.5 173.9 31.5C177.833 33.4333 180.8 36.1333 182.8 39.6C184.8 43 185.8 46.8333 185.8 51.1C185.8 55.9 184.467 60.1333 181.8 63.8C179.2 67.4 175.367 69.9667 170.3 71.5L186.2 99H164.3ZM148.2 59.6H157.9C160.567 59.6 162.567 58.9667 163.9 57.7C165.233 56.4333 165.9 54.6 165.9 52.2C165.9 49.9333 165.2 48.1667 163.8 46.9C162.467 45.5667 160.5 44.9 157.9 44.9H148.2V59.6ZM195.513 70.9C195.513 65.1 196.547 60.0333 198.613 55.7C200.747 51.3667 203.613 48.0333 207.213 45.7C210.88 43.3667 214.947 42.2 219.413 42.2C223.28 42.2 226.613 42.9667 229.413 44.5C232.213 46.0333 234.38 48.1 235.913 50.7V42.9H255.513V99H235.913V91.2C234.38 93.8 232.18 95.8667 229.313 97.4C226.513 98.9333 223.213 99.7 219.413 99.7C214.947 99.7 210.88 98.5333 207.213 96.2C203.613 93.8667 200.747 90.5333 198.613 86.2C196.547 81.8 195.513 76.7 195.513 70.9ZM235.913 70.9C235.913 67.3 234.913 64.4667 232.913 62.4C230.98 60.3333 228.58 59.3 225.713 59.3C222.78 59.3 220.347 60.3333 218.413 62.4C216.48 64.4 215.513 67.2333 215.513 70.9C215.513 74.5 216.48 77.3667 218.413 79.5C220.347 81.5667 222.78 82.6 225.713 82.6C228.58 82.6 230.98 81.5667 232.913 79.5C234.913 77.4333 235.913 74.5667 235.913 70.9ZM267.482 70.9C267.482 65.1 268.515 60.0333 270.582 55.7C272.715 51.3667 275.582 48.0333 279.182 45.7C282.849 43.3667 286.915 42.2 291.382 42.2C295.249 42.2 298.582 42.9667 301.382 44.5C304.182 46.0333 306.349 48.1 307.882 50.7V42.9H327.482V99H307.882V91.2C306.349 93.8 304.149 95.8667 301.282 97.4C298.482 98.9333 295.182 99.7 291.382 99.7C286.915 99.7 282.849 98.5333 279.182 96.2C275.582 93.8667 272.715 90.5333 270.582 86.2C268.515 81.8 267.482 76.7 267.482 70.9ZM307.882 70.9C307.882 67.3 306.882 64.4667 304.882 62.4C302.949 60.3333 300.549 59.3 297.682 59.3C294.749 59.3 292.315 60.3333 290.382 62.4C288.449 64.4 287.482 67.2333 287.482 70.9C287.482 74.5 288.449 77.3667 290.382 79.5C292.315 81.5667 294.749 82.6 297.682 82.6C300.549 82.6 302.949 81.5667 304.882 79.5C306.882 77.4333 307.882 74.5667 307.882 70.9ZM366.551 99.7C361.484 99.7 356.951 98.8667 352.951 97.2C349.017 95.4667 345.884 93.1333 343.551 90.2C341.284 87.2 340.017 83.8333 339.751 80.1H358.751C359.017 81.9 359.851 83.3 361.251 84.3C362.651 85.3 364.384 85.8 366.451 85.8C368.051 85.8 369.317 85.4667 370.251 84.8C371.184 84.1333 371.651 83.2667 371.651 82.2C371.651 80.8 370.884 79.7667 369.351 79.1C367.817 78.4333 365.284 77.7 361.751 76.9C357.751 76.1 354.417 75.2 351.751 74.2C349.084 73.2 346.751 71.5667 344.751 69.3C342.817 67.0333 341.851 63.9667 341.851 60.1C341.851 56.7667 342.751 53.7667 344.551 51.1C346.351 48.3667 348.984 46.2 352.451 44.6C355.984 43 360.217 42.2 365.151 42.2C372.484 42.2 378.251 44 382.451 47.6C386.651 51.2 389.084 55.9333 389.751 61.8H372.051C371.717 60 370.917 58.6333 369.651 57.7C368.451 56.7 366.817 56.2 364.751 56.2C363.151 56.2 361.917 56.5 361.051 57.1C360.251 57.7 359.851 58.5333 359.851 59.6C359.851 60.9333 360.617 61.9667 362.151 62.7C363.684 63.3667 366.151 64.0667 369.551 64.8C373.617 65.6667 376.984 66.6333 379.651 67.7C382.384 68.7667 384.751 70.5 386.751 72.9C388.817 75.2333 389.851 78.4333 389.851 82.5C389.851 85.7667 388.884 88.7 386.951 91.3C385.084 93.9 382.384 95.9667 378.851 97.5C375.384 98.9667 371.284 99.7 366.551 99.7ZM436.587 82.3V99H428.087C413.753 99 406.587 91.9 406.587 77.7V59.2H399.687V42.9H406.587V29.3H426.287V42.9H436.487V59.2H426.287V78C426.287 79.5333 426.62 80.6333 427.287 81.3C428.02 81.9667 429.22 82.3 430.887 82.3H436.587ZM446.377 70.9C446.377 65.1 447.41 60.0333 449.477 55.7C451.61 51.3667 454.477 48.0333 458.077 45.7C461.743 43.3667 465.81 42.2 470.277 42.2C474.143 42.2 477.477 42.9667 480.277 44.5C483.077 46.0333 485.243 48.1 486.777 50.7V42.9H506.377V99H486.777V91.2C485.243 93.8 483.043 95.8667 480.177 97.4C477.377 98.9333 474.077 99.7 470.277 99.7C465.81 99.7 461.743 98.5333 458.077 96.2C454.477 93.8667 451.61 90.5333 449.477 86.2C447.41 81.8 446.377 76.7 446.377 70.9ZM486.777 70.9C486.777 67.3 485.777 64.4667 483.777 62.4C481.843 60.3333 479.443 59.3 476.577 59.3C473.643 59.3 471.21 60.3333 469.277 62.4C467.343 64.4 466.377 67.2333 466.377 70.9C466.377 74.5 467.343 77.3667 469.277 79.5C471.21 81.5667 473.643 82.6 476.577 82.6C479.443 82.6 481.843 81.5667 483.777 79.5C485.777 77.4333 486.777 74.5667 486.777 70.9Z" fill="black"/>
<path d="M128.153 130V129.182C128.852 129.154 129.369 129.098 129.705 129.015C130.054 128.917 130.285 128.742 130.397 128.49C130.509 128.239 130.565 127.868 130.565 127.379V117.776C130.565 117.273 130.509 116.902 130.397 116.665C130.285 116.413 130.054 116.238 129.705 116.14C129.369 116.042 128.852 115.987 128.153 115.973V115.155C128.461 115.169 128.894 115.183 129.453 115.197C130.026 115.197 130.718 115.197 131.529 115.197C131.948 115.197 132.333 115.197 132.682 115.197C133.046 115.197 133.374 115.197 133.668 115.197C133.975 115.183 134.248 115.176 134.485 115.176C134.723 115.162 134.919 115.155 135.073 115.155C136.834 115.155 138.197 115.483 139.161 116.14C140.126 116.797 140.608 117.72 140.608 118.908C140.608 119.733 140.363 120.446 139.874 121.047C139.385 121.648 138.693 122.116 137.798 122.452C136.904 122.773 135.841 122.934 134.611 122.934H131.885V122.347H134.569C135.772 122.347 136.659 122.081 137.232 121.55C137.819 121.019 138.113 120.215 138.113 119.139C138.113 118.076 137.826 117.287 137.253 116.769C136.68 116.238 135.813 115.973 134.653 115.973H132.997V127.379C132.997 127.868 133.053 128.239 133.165 128.49C133.276 128.742 133.5 128.917 133.835 129.015C134.185 129.098 134.702 129.154 135.387 129.182V130C134.73 129.958 133.528 129.937 131.781 129.937C130.047 129.937 128.838 129.958 128.153 130ZM140.545 130.294C139.804 130.294 139.224 130.105 138.805 129.727C138.399 129.336 138.106 128.707 137.924 127.84L137.379 125.492C137.253 124.891 137.085 124.423 136.876 124.087C136.666 123.738 136.387 123.493 136.037 123.353C135.688 123.213 135.226 123.144 134.653 123.144H132.011V122.598H134.444C135.688 122.598 136.673 122.696 137.4 122.892C138.141 123.088 138.707 123.43 139.098 123.919C139.49 124.409 139.79 125.101 140 125.995L140.377 127.547C140.503 128.078 140.657 128.455 140.839 128.679C141.034 128.889 141.286 128.994 141.594 128.994C141.775 128.98 141.936 128.938 142.076 128.868C142.23 128.784 142.397 128.644 142.579 128.448L143.019 129.015C142.684 129.462 142.32 129.79 141.929 130C141.538 130.196 141.076 130.294 140.545 130.294ZM145.868 130V129.182C146.567 129.154 147.084 129.098 147.419 129.015C147.769 128.931 147.999 128.763 148.111 128.511C148.223 128.26 148.279 127.882 148.279 127.379V117.776C148.279 117.273 148.223 116.902 148.111 116.665C147.999 116.413 147.769 116.238 147.419 116.14C147.084 116.042 146.567 115.987 145.868 115.973V115.155C146.623 115.169 147.601 115.183 148.803 115.197C150.005 115.211 151.41 115.218 153.018 115.218C153.563 115.218 154.094 115.218 154.611 115.218C155.142 115.204 155.639 115.197 156.1 115.197C156.575 115.183 157.009 115.169 157.4 115.155C157.414 115.868 157.449 116.574 157.505 117.273C157.561 117.972 157.645 118.67 157.756 119.369H156.897C156.715 118.531 156.484 117.867 156.205 117.377C155.925 116.888 155.576 116.546 155.156 116.35C154.737 116.14 154.206 116.035 153.563 116.035H150.711V127.484C150.711 127.945 150.746 128.295 150.816 128.532C150.9 128.77 151.068 128.931 151.319 129.015C151.571 129.084 151.934 129.119 152.41 129.119H153.206C154.073 129.119 154.779 128.994 155.324 128.742C155.883 128.476 156.352 128.029 156.729 127.4C157.12 126.771 157.477 125.897 157.798 124.779H158.637C158.539 125.66 158.462 126.533 158.406 127.4C158.351 128.253 158.323 129.119 158.323 130C157.666 129.972 156.897 129.958 156.016 129.958C155.149 129.944 154.136 129.937 152.976 129.937C151.382 129.937 149.984 129.944 148.782 129.958C147.594 129.958 146.623 129.972 145.868 130ZM150.04 122.934V122.137H153.752V122.934H150.04ZM154.527 125.639C154.472 124.968 154.36 124.437 154.192 124.045C154.024 123.654 153.78 123.374 153.458 123.206C153.151 123.025 152.738 122.934 152.221 122.934V122.137C152.934 122.137 153.458 121.927 153.794 121.508C154.143 121.089 154.367 120.397 154.465 119.432H155.219C155.163 120.257 155.135 120.893 155.135 121.34C155.149 121.774 155.156 122.172 155.156 122.535C155.156 122.829 155.156 123.123 155.156 123.416C155.17 123.696 155.184 124.017 155.198 124.381C155.226 124.73 155.254 125.149 155.282 125.639H154.527ZM161.941 130V129.182C162.416 129.14 162.822 129.028 163.157 128.847C163.493 128.665 163.786 128.392 164.038 128.029C164.303 127.666 164.562 127.183 164.814 126.582L169.636 115.008H170.391L175.654 127.4C175.934 128.043 176.262 128.497 176.639 128.763C177.031 129.028 177.583 129.168 178.296 129.182V130C177.918 129.972 177.436 129.958 176.849 129.958C176.262 129.944 175.584 129.937 174.815 129.937C173.949 129.937 173.201 129.944 172.572 129.958C171.943 129.958 171.453 129.972 171.104 130V129.182C171.831 129.168 172.362 129.105 172.698 128.994C173.047 128.882 173.243 128.7 173.285 128.448C173.327 128.197 173.243 127.833 173.033 127.358L169.028 117.818L169.427 117.524L165.988 125.827C165.666 126.596 165.513 127.225 165.527 127.715C165.541 128.204 165.736 128.567 166.114 128.805C166.491 129.028 167.071 129.154 167.854 129.182V130C167.449 129.986 167.05 129.979 166.659 129.979C166.281 129.965 165.911 129.958 165.548 129.958C165.184 129.944 164.821 129.937 164.457 129.937C164.024 129.937 163.605 129.944 163.199 129.958C162.794 129.958 162.374 129.972 161.941 130ZM165.883 124.968L166.218 124.171H172.823L173.138 124.968H165.883ZM181.297 130V129.182C182.01 129.154 182.534 129.098 182.869 129.015C183.219 128.917 183.443 128.742 183.54 128.49C183.652 128.239 183.708 127.868 183.708 127.379V117.776C183.708 117.259 183.652 116.881 183.54 116.644C183.429 116.406 183.198 116.238 182.848 116.14C182.513 116.042 181.996 115.987 181.297 115.973V115.155C181.73 115.169 182.254 115.183 182.869 115.197C183.498 115.211 184.197 115.218 184.966 115.218C185.931 115.218 186.776 115.211 187.503 115.197C188.23 115.183 188.803 115.169 189.223 115.155V115.973C188.314 115.987 187.636 116.042 187.189 116.14C186.755 116.224 186.469 116.392 186.329 116.644C186.203 116.881 186.14 117.259 186.14 117.776V127.484C186.14 127.945 186.175 128.295 186.245 128.532C186.329 128.77 186.49 128.931 186.727 129.015C186.979 129.084 187.35 129.119 187.839 129.119H188.636C189.279 129.119 189.831 129.049 190.292 128.91C190.767 128.77 191.18 128.539 191.529 128.218C191.879 127.882 192.186 127.435 192.452 126.876C192.731 126.317 192.99 125.618 193.227 124.779H194.066C193.968 125.66 193.891 126.533 193.836 127.4C193.78 128.267 193.752 129.133 193.752 130C193.151 129.972 192.431 129.958 191.592 129.958C190.753 129.944 189.74 129.937 188.552 129.937C186.944 129.937 185.525 129.944 184.295 129.958C183.079 129.958 182.08 129.972 181.297 130ZM204.894 130V129.182C205.593 129.154 206.11 129.098 206.445 129.015C206.795 128.931 207.026 128.763 207.137 128.511C207.249 128.26 207.305 127.882 207.305 127.379V117.776C207.305 117.273 207.249 116.902 207.137 116.665C207.026 116.413 206.795 116.238 206.445 116.14C206.11 116.042 205.593 115.987 204.894 115.973V115.155C205.649 115.169 206.627 115.183 207.829 115.197C209.031 115.211 210.436 115.218 212.044 115.218C212.589 115.218 213.12 115.218 213.637 115.218C214.169 115.204 214.665 115.197 215.126 115.197C215.601 115.183 216.035 115.169 216.426 115.155C216.44 115.868 216.475 116.574 216.531 117.273C216.587 117.972 216.671 118.67 216.783 119.369H215.923C215.741 118.531 215.511 117.867 215.231 117.377C214.951 116.888 214.602 116.546 214.183 116.35C213.763 116.14 213.232 116.035 212.589 116.035H209.737V127.484C209.737 127.945 209.772 128.295 209.842 128.532C209.926 128.77 210.094 128.931 210.345 129.015C210.597 129.084 210.961 129.119 211.436 129.119H212.233C213.099 129.119 213.805 128.994 214.35 128.742C214.909 128.476 215.378 128.029 215.755 127.4C216.147 126.771 216.503 125.897 216.824 124.779H217.663C217.565 125.66 217.488 126.533 217.433 127.4C217.377 128.253 217.349 129.119 217.349 130C216.692 129.972 215.923 129.958 215.042 129.958C214.176 129.944 213.162 129.937 212.002 129.937C210.408 129.937 209.011 129.944 207.808 129.958C206.62 129.958 205.649 129.972 204.894 130ZM209.066 122.934V122.137H212.778V122.934H209.066ZM213.554 125.639C213.498 124.968 213.386 124.437 213.218 124.045C213.05 123.654 212.806 123.374 212.484 123.206C212.177 123.025 211.764 122.934 211.247 122.934V122.137C211.96 122.137 212.484 121.927 212.82 121.508C213.169 121.089 213.393 120.397 213.491 119.432H214.245C214.19 120.257 214.162 120.893 214.162 121.34C214.176 121.774 214.183 122.172 214.183 122.535C214.183 122.829 214.183 123.123 214.183 123.416C214.197 123.696 214.211 124.017 214.224 124.381C214.252 124.73 214.28 125.149 214.308 125.639H213.554ZM228.233 130.294C227.422 130.294 226.73 130.21 226.157 130.042C225.598 129.874 225.137 129.713 224.773 129.56C224.424 129.392 224.137 129.308 223.914 129.308C223.746 129.308 223.606 129.385 223.494 129.539C223.397 129.678 223.32 129.895 223.264 130.189H222.425C222.453 129.867 222.474 129.483 222.488 129.035C222.502 128.574 222.509 127.987 222.509 127.274C222.523 126.561 222.53 125.674 222.53 124.611H223.369C223.494 126.121 223.956 127.309 224.752 128.176C225.563 129.028 226.619 129.455 227.919 129.455C228.841 129.455 229.575 129.224 230.12 128.763C230.665 128.288 230.938 127.652 230.938 126.855C230.938 126.352 230.812 125.904 230.561 125.513C230.323 125.122 229.932 124.758 229.386 124.423C228.855 124.087 228.142 123.752 227.248 123.416C226.185 123.039 225.319 122.626 224.648 122.179C223.977 121.718 223.487 121.208 223.18 120.648C222.872 120.089 222.719 119.46 222.719 118.761C222.719 117.965 222.9 117.28 223.264 116.706C223.627 116.119 224.144 115.665 224.815 115.344C225.486 115.022 226.276 114.861 227.185 114.861C227.926 114.861 228.541 114.945 229.03 115.113C229.519 115.267 229.925 115.427 230.246 115.595C230.568 115.763 230.84 115.847 231.064 115.847C231.246 115.847 231.385 115.777 231.483 115.637C231.595 115.497 231.679 115.274 231.735 114.966H232.573C232.546 115.274 232.525 115.623 232.511 116.015C232.497 116.392 232.483 116.874 232.469 117.461C232.469 118.048 232.469 118.81 232.469 119.747H231.63C231.49 118.517 231.05 117.538 230.309 116.811C229.568 116.07 228.632 115.7 227.499 115.7C226.661 115.7 226.004 115.91 225.528 116.329C225.067 116.734 224.836 117.294 224.836 118.006C224.836 118.482 224.962 118.908 225.214 119.285C225.465 119.663 225.878 120.019 226.451 120.355C227.038 120.69 227.814 121.04 228.778 121.403C230.372 121.99 231.511 122.654 232.196 123.395C232.895 124.122 233.244 125.024 233.244 126.1C233.244 127.4 232.79 128.427 231.882 129.182C230.987 129.923 229.771 130.294 228.233 130.294ZM239.211 130V129.182C240.049 129.154 240.671 129.098 241.077 129.015C241.496 128.917 241.776 128.728 241.915 128.448C242.055 128.169 242.125 127.749 242.125 127.19V116.035H241.119C240.504 116.035 239.986 116.161 239.567 116.413C239.162 116.651 238.819 117.07 238.54 117.671C238.26 118.258 238.008 119.069 237.785 120.103H236.946C237.072 119.251 237.163 118.419 237.219 117.608C237.289 116.783 237.331 115.966 237.345 115.155C237.918 115.169 238.547 115.183 239.232 115.197C239.917 115.211 240.615 115.218 241.328 115.218C242.055 115.218 242.726 115.218 243.341 115.218C243.928 115.218 244.571 115.218 245.27 115.218C245.983 115.218 246.689 115.211 247.388 115.197C248.101 115.183 248.751 115.169 249.338 115.155C249.352 115.966 249.387 116.783 249.443 117.608C249.513 118.419 249.611 119.251 249.736 120.103H248.898C248.73 119.334 248.548 118.691 248.353 118.174C248.157 117.643 247.926 117.224 247.661 116.916C247.409 116.595 247.108 116.371 246.759 116.245C246.424 116.105 246.025 116.035 245.564 116.035H244.557V127.19C244.557 127.749 244.627 128.169 244.767 128.448C244.907 128.728 245.179 128.917 245.585 129.015C246.004 129.098 246.633 129.154 247.472 129.182V130C247.025 129.972 246.431 129.958 245.69 129.958C244.963 129.944 244.187 129.937 243.362 129.937C242.482 129.937 241.678 129.944 240.951 129.958C240.224 129.958 239.644 129.972 239.211 130ZM251.445 130V129.182C251.92 129.14 252.326 129.028 252.661 128.847C252.997 128.665 253.29 128.392 253.542 128.029C253.807 127.666 254.066 127.183 254.318 126.582L259.14 115.008H259.895L265.158 127.4C265.438 128.043 265.766 128.497 266.143 128.763C266.535 129.028 267.087 129.168 267.8 129.182V130C267.422 129.972 266.94 129.958 266.353 129.958C265.766 129.944 265.088 129.937 264.319 129.937C263.453 129.937 262.705 129.944 262.076 129.958C261.447 129.958 260.957 129.972 260.608 130V129.182C261.335 129.168 261.866 129.105 262.202 128.994C262.551 128.882 262.747 128.7 262.789 128.448C262.831 128.197 262.747 127.833 262.537 127.358L258.532 117.818L258.931 117.524L255.492 125.827C255.17 126.596 255.017 127.225 255.031 127.715C255.045 128.204 255.24 128.567 255.618 128.805C255.995 129.028 256.575 129.154 257.358 129.182V130C256.953 129.986 256.554 129.979 256.163 129.979C255.785 129.965 255.415 129.958 255.052 129.958C254.688 129.944 254.325 129.937 253.961 129.937C253.528 129.937 253.108 129.944 252.703 129.958C252.298 129.958 251.878 129.972 251.445 130ZM255.387 124.968L255.722 124.171H262.327L262.642 124.968H255.387ZM271.745 130V129.182C272.584 129.154 273.206 129.098 273.611 129.015C274.031 128.917 274.31 128.728 274.45 128.448C274.59 128.169 274.66 127.749 274.66 127.19V116.035H273.653C273.038 116.035 272.521 116.161 272.102 116.413C271.696 116.651 271.354 117.07 271.074 117.671C270.795 118.258 270.543 119.069 270.319 120.103H269.481C269.606 119.251 269.697 118.419 269.753 117.608C269.823 116.783 269.865 115.966 269.879 115.155C270.452 115.169 271.081 115.183 271.766 115.197C272.451 115.211 273.15 115.218 273.863 115.218C274.59 115.218 275.261 115.218 275.876 115.218C276.463 115.218 277.106 115.218 277.805 115.218C278.518 115.218 279.224 115.211 279.923 115.197C280.635 115.183 281.285 115.169 281.873 115.155C281.887 115.966 281.922 116.783 281.977 117.608C282.047 118.419 282.145 119.251 282.271 120.103H281.432C281.265 119.334 281.083 118.691 280.887 118.174C280.691 117.643 280.461 117.224 280.195 116.916C279.944 116.595 279.643 116.371 279.294 116.245C278.958 116.105 278.56 116.035 278.098 116.035H277.092V127.19C277.092 127.749 277.162 128.169 277.302 128.448C277.441 128.728 277.714 128.917 278.119 129.015C278.539 129.098 279.168 129.154 280.006 129.182V130C279.559 129.972 278.965 129.958 278.224 129.958C277.497 129.944 276.722 129.937 275.897 129.937C275.016 129.937 274.212 129.944 273.485 129.958C272.759 129.958 272.179 129.972 271.745 130ZM285.925 130V129.182C286.624 129.154 287.142 129.098 287.477 129.015C287.827 128.931 288.057 128.763 288.169 128.511C288.281 128.26 288.337 127.882 288.337 127.379V117.776C288.337 117.273 288.281 116.902 288.169 116.665C288.057 116.413 287.827 116.238 287.477 116.14C287.142 116.042 286.624 115.987 285.925 115.973V115.155C286.68 115.169 287.659 115.183 288.861 115.197C290.063 115.211 291.468 115.218 293.075 115.218C293.621 115.218 294.152 115.218 294.669 115.218C295.2 115.204 295.696 115.197 296.158 115.197C296.633 115.183 297.066 115.169 297.458 115.155C297.472 115.868 297.507 116.574 297.563 117.273C297.618 117.972 297.702 118.67 297.814 119.369H296.955C296.773 118.531 296.542 117.867 296.263 117.377C295.983 116.888 295.634 116.546 295.214 116.35C294.795 116.14 294.264 116.035 293.621 116.035H290.769V127.484C290.769 127.945 290.804 128.295 290.874 128.532C290.958 128.77 291.125 128.931 291.377 129.015C291.629 129.084 291.992 129.119 292.467 129.119H293.264C294.131 129.119 294.837 128.994 295.382 128.742C295.941 128.476 296.409 128.029 296.787 127.4C297.178 126.771 297.535 125.897 297.856 124.779H298.695C298.597 125.66 298.52 126.533 298.464 127.4C298.408 128.253 298.38 129.119 298.38 130C297.723 129.972 296.955 129.958 296.074 129.958C295.207 129.944 294.194 129.937 293.034 129.937C291.44 129.937 290.042 129.944 288.84 129.958C287.652 129.958 286.68 129.972 285.925 130ZM290.098 122.934V122.137H293.809V122.934H290.098ZM294.585 125.639C294.529 124.968 294.417 124.437 294.25 124.045C294.082 123.654 293.837 123.374 293.516 123.206C293.208 123.025 292.796 122.934 292.279 122.934V122.137C292.992 122.137 293.516 121.927 293.851 121.508C294.201 121.089 294.424 120.397 294.522 119.432H295.277C295.221 120.257 295.193 120.893 295.193 121.34C295.207 121.774 295.214 122.172 295.214 122.535C295.214 122.829 295.214 123.123 295.214 123.416C295.228 123.696 295.242 124.017 295.256 124.381C295.284 124.73 295.312 125.149 295.34 125.639H294.585ZM324.552 130.147L319.981 117.755C319.73 117.098 319.443 116.644 319.122 116.392C318.8 116.126 318.339 115.987 317.738 115.973V115.155C318.087 115.169 318.528 115.183 319.059 115.197C319.604 115.211 320.205 115.218 320.862 115.218C321.407 115.218 321.903 115.218 322.351 115.218C322.798 115.204 323.189 115.197 323.525 115.197C323.86 115.183 324.14 115.169 324.364 115.155V115.973C323.693 115.987 323.196 116.049 322.875 116.161C322.553 116.259 322.372 116.434 322.33 116.685C322.302 116.937 322.379 117.308 322.56 117.797L325.894 126.897L325.538 127.044L328.159 119.327C328.438 118.531 328.564 117.895 328.536 117.419C328.522 116.944 328.333 116.595 327.97 116.371C327.607 116.133 327.04 116.001 326.272 115.973V115.155C326.677 115.169 327.068 115.183 327.446 115.197C327.837 115.197 328.222 115.204 328.599 115.218C328.976 115.218 329.34 115.218 329.689 115.218C330.123 115.218 330.535 115.211 330.926 115.197C331.332 115.183 331.744 115.169 332.164 115.155V115.973C331.688 116.001 331.269 116.105 330.906 116.287C330.556 116.469 330.249 116.741 329.983 117.105C329.731 117.468 329.501 117.958 329.291 118.573L325.328 130.147H324.552ZM316.668 130.147L312.056 117.755C311.804 117.084 311.482 116.623 311.091 116.371C310.714 116.119 310.161 115.987 309.435 115.973V115.155C309.812 115.169 310.294 115.183 310.881 115.197C311.482 115.211 312.153 115.218 312.894 115.218C313.425 115.218 313.908 115.218 314.341 115.218C314.788 115.204 315.18 115.197 315.515 115.197C315.851 115.183 316.123 115.169 316.333 115.155V115.973C315.704 115.987 315.236 116.049 314.928 116.161C314.621 116.259 314.453 116.434 314.425 116.685C314.411 116.937 314.488 117.308 314.656 117.797L318.115 127.148L317.591 127.421L320.841 118.153L321.302 119.265L317.444 130.147H316.668ZM335.108 130V129.182C335.821 129.154 336.345 129.098 336.681 129.015C337.016 128.917 337.24 128.749 337.352 128.511C337.464 128.26 337.519 127.882 337.519 127.379V117.776C337.519 117.273 337.464 116.902 337.352 116.665C337.24 116.413 337.016 116.238 336.681 116.14C336.345 116.042 335.821 115.987 335.108 115.973V115.155C335.486 115.169 335.982 115.183 336.597 115.197C337.226 115.211 337.946 115.218 338.757 115.218C339.511 115.218 340.203 115.211 340.832 115.197C341.461 115.183 341.965 115.169 342.342 115.155V115.973C341.657 115.987 341.14 116.042 340.79 116.14C340.455 116.238 340.231 116.413 340.119 116.665C340.008 116.902 339.952 117.273 339.952 117.776V127.379C339.952 127.882 340.008 128.26 340.119 128.511C340.231 128.749 340.455 128.917 340.79 129.015C341.14 129.098 341.657 129.154 342.342 129.182V130C341.965 129.986 341.461 129.972 340.832 129.958C340.203 129.944 339.511 129.937 338.757 129.937C337.946 129.937 337.226 129.944 336.597 129.958C335.982 129.972 335.486 129.986 335.108 130ZM348.283 130V129.182C349.121 129.154 349.743 129.098 350.149 129.015C350.568 128.917 350.848 128.728 350.988 128.448C351.127 128.169 351.197 127.749 351.197 127.19V116.035H350.191C349.576 116.035 349.058 116.161 348.639 116.413C348.234 116.651 347.891 117.07 347.612 117.671C347.332 118.258 347.081 119.069 346.857 120.103H346.018C346.144 119.251 346.235 118.419 346.291 117.608C346.361 116.783 346.403 115.966 346.417 115.155C346.99 115.169 347.619 115.183 348.304 115.197C348.989 115.211 349.688 115.218 350.4 115.218C351.127 115.218 351.798 115.218 352.413 115.218C353 115.218 353.643 115.218 354.342 115.218C355.055 115.218 355.761 115.211 356.46 115.197C357.173 115.183 357.823 115.169 358.41 115.155C358.424 115.966 358.459 116.783 358.515 117.608C358.585 118.419 358.683 119.251 358.808 120.103H357.97C357.802 119.334 357.62 118.691 357.425 118.174C357.229 117.643 356.998 117.224 356.733 116.916C356.481 116.595 356.181 116.371 355.831 116.245C355.496 116.105 355.097 116.035 354.636 116.035H353.629V127.19C353.629 127.749 353.699 128.169 353.839 128.448C353.979 128.728 354.251 128.917 354.657 129.015C355.076 129.098 355.705 129.154 356.544 129.182V130C356.097 129.972 355.503 129.958 354.762 129.958C354.035 129.944 353.259 129.937 352.434 129.937C351.554 129.937 350.75 129.944 350.023 129.958C349.296 129.958 348.716 129.972 348.283 130ZM372.108 130V129.182C372.723 129.154 373.178 129.098 373.471 129.015C373.779 128.917 373.981 128.749 374.079 128.511C374.177 128.26 374.226 127.882 374.226 127.379V117.776C374.226 117.273 374.177 116.902 374.079 116.665C373.995 116.413 373.8 116.238 373.492 116.14C373.198 116.042 372.737 115.987 372.108 115.973V115.155C372.458 115.169 372.926 115.183 373.513 115.197C374.1 115.211 374.75 115.218 375.463 115.218C376.274 115.218 376.987 115.211 377.602 115.197C378.217 115.183 378.706 115.169 379.069 115.155V115.973C378.371 115.987 377.846 116.042 377.497 116.14C377.161 116.238 376.938 116.413 376.826 116.665C376.728 116.902 376.679 117.273 376.679 117.776V127.379C376.679 127.882 376.728 128.26 376.826 128.511C376.938 128.749 377.161 128.917 377.497 129.015C377.846 129.098 378.371 129.154 379.069 129.182V130C378.706 129.972 378.217 129.958 377.602 129.958C376.987 129.944 376.274 129.937 375.463 129.937C374.736 129.937 374.079 129.944 373.492 129.958C372.919 129.958 372.458 129.972 372.108 130ZM362.463 130V129.182C363.176 129.154 363.7 129.098 364.036 129.015C364.371 128.917 364.595 128.749 364.707 128.511C364.818 128.26 364.874 127.882 364.874 127.379V117.776C364.874 117.273 364.818 116.902 364.707 116.665C364.595 116.413 364.371 116.238 364.036 116.14C363.7 116.042 363.176 115.987 362.463 115.973V115.155C362.84 115.169 363.337 115.183 363.952 115.197C364.581 115.211 365.301 115.218 366.111 115.218C366.824 115.218 367.467 115.211 368.04 115.197C368.628 115.183 369.089 115.169 369.424 115.155V115.973C368.809 115.987 368.348 116.042 368.04 116.14C367.747 116.238 367.551 116.413 367.453 116.665C367.355 116.902 367.307 117.273 367.307 117.776V127.379C367.307 127.868 367.355 128.239 367.453 128.49C367.551 128.742 367.747 128.917 368.04 129.015C368.348 129.098 368.809 129.154 369.424 129.182V130C369.089 129.972 368.628 129.958 368.04 129.958C367.453 129.944 366.803 129.937 366.09 129.937C365.28 129.937 364.56 129.944 363.931 129.958C363.316 129.958 362.826 129.972 362.463 130ZM366.363 122.934V122.137H375.169V122.934H366.363ZM390.376 130V129.182C391.075 129.154 391.593 129.098 391.928 129.015C392.278 128.917 392.508 128.749 392.62 128.511C392.732 128.26 392.788 127.882 392.788 127.379V117.776C392.788 117.273 392.732 116.902 392.62 116.665C392.508 116.413 392.278 116.238 391.928 116.14C391.593 116.042 391.075 115.987 390.376 115.973V115.155C390.572 115.169 390.824 115.183 391.131 115.197C391.439 115.197 391.809 115.197 392.243 115.197C392.69 115.197 393.2 115.197 393.773 115.197C394.612 115.197 395.332 115.197 395.933 115.197C396.548 115.183 397.009 115.176 397.317 115.176C399.092 115.176 400.462 115.553 401.426 116.308C402.391 117.063 402.873 118.139 402.873 119.537C402.873 120.502 402.629 121.333 402.139 122.032C401.664 122.731 400.979 123.269 400.084 123.647C399.19 124.024 398.114 124.213 396.855 124.213C396.576 124.213 396.296 124.206 396.017 124.192C395.751 124.164 395.5 124.129 395.262 124.087C395.024 124.045 394.815 123.996 394.633 123.94V123.144C394.912 123.213 395.22 123.276 395.555 123.332C395.905 123.374 396.254 123.395 396.604 123.395C397.848 123.395 398.771 123.088 399.372 122.473C399.987 121.844 400.294 120.893 400.294 119.621C400.294 118.377 400.015 117.461 399.455 116.874C398.896 116.273 398.037 115.973 396.876 115.973H395.22V127.358C395.22 127.861 395.29 128.239 395.43 128.49C395.569 128.742 395.842 128.917 396.247 129.015C396.667 129.098 397.296 129.154 398.134 129.182V130C397.883 129.986 397.561 129.979 397.17 129.979C396.779 129.965 396.324 129.958 395.807 129.958C395.29 129.944 394.71 129.937 394.067 129.937C393.228 129.937 392.501 129.944 391.886 129.958C391.285 129.972 390.782 129.986 390.376 130ZM413.957 130.294C412.755 130.294 411.748 130.077 410.938 129.644C410.127 129.196 409.519 128.532 409.113 127.652C408.708 126.771 408.505 125.674 408.505 124.36V117.776C408.505 117.273 408.449 116.902 408.338 116.665C408.226 116.413 407.995 116.238 407.646 116.14C407.31 116.042 406.8 115.987 406.115 115.973V115.155C406.772 115.197 407.974 115.218 409.722 115.218C411.357 115.218 412.503 115.197 413.16 115.155V115.973C412.517 115.987 412.035 116.042 411.713 116.14C411.406 116.238 411.196 116.413 411.084 116.665C410.987 116.902 410.938 117.273 410.938 117.776V124.255C410.938 126.03 411.224 127.316 411.797 128.113C412.37 128.896 413.3 129.287 414.586 129.287C415.886 129.287 416.851 128.847 417.48 127.966C418.123 127.085 418.444 125.758 418.444 123.982V118.048C418.444 117.489 418.388 117.07 418.276 116.79C418.165 116.497 417.948 116.294 417.626 116.182C417.305 116.07 416.83 116.001 416.201 115.973V115.155C416.438 115.169 416.767 115.183 417.186 115.197C417.619 115.211 418.144 115.218 418.759 115.218C419.472 115.218 420.073 115.211 420.562 115.197C421.065 115.183 421.436 115.169 421.673 115.155V115.973C421.016 116.001 420.513 116.077 420.163 116.203C419.828 116.315 419.597 116.525 419.472 116.832C419.346 117.126 419.283 117.552 419.283 118.111V124.066C419.283 126.163 418.849 127.728 417.983 128.763C417.116 129.783 415.774 130.294 413.957 130.294ZM425.196 130V129.182C425.895 129.154 426.412 129.098 426.748 129.015C427.097 128.917 427.328 128.742 427.44 128.49C427.551 128.239 427.607 127.868 427.607 127.379V117.776C427.607 117.273 427.551 116.902 427.44 116.665C427.328 116.413 427.097 116.238 426.748 116.14C426.412 116.042 425.895 115.987 425.196 115.973V115.155C425.504 115.169 425.937 115.183 426.496 115.197C427.069 115.197 427.761 115.197 428.572 115.197C428.991 115.197 429.376 115.197 429.725 115.197C430.089 115.197 430.417 115.197 430.711 115.197C431.018 115.183 431.291 115.176 431.528 115.176C431.766 115.162 431.962 115.155 432.115 115.155C433.877 115.155 435.24 115.483 436.204 116.14C437.169 116.797 437.651 117.72 437.651 118.908C437.651 119.733 437.406 120.446 436.917 121.047C436.428 121.648 435.736 122.116 434.841 122.452C433.947 122.773 432.884 122.934 431.654 122.934H428.928V122.347H431.612C432.814 122.347 433.702 122.081 434.275 121.55C434.862 121.019 435.156 120.215 435.156 119.139C435.156 118.076 434.869 117.287 434.296 116.769C433.723 116.238 432.856 115.973 431.696 115.973H430.04V127.379C430.04 127.868 430.096 128.239 430.207 128.49C430.319 128.742 430.543 128.917 430.878 129.015C431.228 129.098 431.745 129.154 432.43 129.182V130C431.773 129.958 430.571 129.937 428.824 129.937C427.09 129.937 425.881 129.958 425.196 130ZM437.588 130.294C436.847 130.294 436.267 130.105 435.848 129.727C435.442 129.336 435.149 128.707 434.967 127.84L434.422 125.492C434.296 124.891 434.128 124.423 433.919 124.087C433.709 123.738 433.429 123.493 433.08 123.353C432.731 123.213 432.269 123.144 431.696 123.144H429.054V122.598H431.486C432.731 122.598 433.716 122.696 434.443 122.892C435.184 123.088 435.75 123.43 436.141 123.919C436.533 124.409 436.833 125.101 437.043 125.995L437.42 127.547C437.546 128.078 437.7 128.455 437.882 128.679C438.077 128.889 438.329 128.994 438.636 128.994C438.818 128.98 438.979 128.938 439.119 128.868C439.272 128.784 439.44 128.644 439.622 128.448L440.062 129.015C439.727 129.462 439.363 129.79 438.972 130C438.581 130.196 438.119 130.294 437.588 130.294ZM442.911 130V129.182C443.61 129.154 444.127 129.098 444.462 129.015C444.812 128.917 445.042 128.749 445.154 128.511C445.266 128.26 445.322 127.882 445.322 127.379V117.776C445.322 117.273 445.266 116.902 445.154 116.665C445.042 116.413 444.812 116.238 444.462 116.14C444.127 116.042 443.61 115.987 442.911 115.973V115.155C443.106 115.169 443.358 115.183 443.665 115.197C443.973 115.197 444.343 115.197 444.777 115.197C445.224 115.197 445.734 115.197 446.307 115.197C447.146 115.197 447.866 115.197 448.467 115.197C449.082 115.183 449.543 115.176 449.851 115.176C451.626 115.176 452.996 115.553 453.961 116.308C454.925 117.063 455.407 118.139 455.407 119.537C455.407 120.502 455.163 121.333 454.674 122.032C454.198 122.731 453.513 123.269 452.619 123.647C451.724 124.024 450.648 124.213 449.39 124.213C449.11 124.213 448.831 124.206 448.551 124.192C448.285 124.164 448.034 124.129 447.796 124.087C447.558 124.045 447.349 123.996 447.167 123.94V123.144C447.447 123.213 447.754 123.276 448.09 123.332C448.439 123.374 448.789 123.395 449.138 123.395C450.382 123.395 451.305 123.088 451.906 122.473C452.521 121.844 452.828 120.893 452.828 119.621C452.828 118.377 452.549 117.461 451.99 116.874C451.431 116.273 450.571 115.973 449.411 115.973H447.754V127.358C447.754 127.861 447.824 128.239 447.964 128.49C448.104 128.742 448.376 128.917 448.782 129.015C449.201 129.098 449.83 129.154 450.669 129.182V130C450.417 129.986 450.096 129.979 449.704 129.979C449.313 129.965 448.858 129.958 448.341 129.958C447.824 129.944 447.244 129.937 446.601 129.937C445.762 129.937 445.035 129.944 444.42 129.958C443.819 129.972 443.316 129.986 442.911 130ZM466.731 130.294C465.263 130.294 463.984 129.986 462.894 129.371C461.803 128.756 460.958 127.882 460.357 126.75C459.755 125.604 459.455 124.241 459.455 122.661C459.455 121.11 459.762 119.754 460.377 118.594C460.993 117.419 461.845 116.504 462.936 115.847C464.026 115.19 465.298 114.861 466.752 114.861C468.205 114.861 469.477 115.169 470.568 115.784C471.672 116.399 472.525 117.28 473.126 118.426C473.727 119.558 474.027 120.914 474.027 122.494C474.027 124.045 473.72 125.408 473.105 126.582C472.49 127.742 471.63 128.651 470.526 129.308C469.436 129.965 468.171 130.294 466.731 130.294ZM466.773 129.518C467.709 129.518 468.527 129.224 469.226 128.637C469.925 128.05 470.463 127.239 470.84 126.205C471.232 125.156 471.427 123.94 471.427 122.556C471.427 121.145 471.218 119.922 470.798 118.887C470.393 117.853 469.827 117.056 469.1 116.497C468.387 115.924 467.583 115.637 466.689 115.637C465.766 115.637 464.955 115.931 464.257 116.518C463.558 117.105 463.012 117.923 462.621 118.971C462.23 120.005 462.034 121.215 462.034 122.598C462.034 124.01 462.244 125.233 462.663 126.268C463.082 127.302 463.648 128.106 464.361 128.679C465.088 129.238 465.892 129.518 466.773 129.518ZM484.65 130.294C483.839 130.294 483.147 130.21 482.574 130.042C482.015 129.874 481.554 129.713 481.19 129.56C480.841 129.392 480.554 129.308 480.331 129.308C480.163 129.308 480.023 129.385 479.911 129.539C479.813 129.678 479.737 129.895 479.681 130.189H478.842C478.87 129.867 478.891 129.483 478.905 129.035C478.919 128.574 478.926 127.987 478.926 127.274C478.94 126.561 478.947 125.674 478.947 124.611H479.786C479.911 126.121 480.373 127.309 481.169 128.176C481.98 129.028 483.036 129.455 484.336 129.455C485.258 129.455 485.992 129.224 486.537 128.763C487.082 128.288 487.355 127.652 487.355 126.855C487.355 126.352 487.229 125.904 486.977 125.513C486.74 125.122 486.348 124.758 485.803 124.423C485.272 124.087 484.559 123.752 483.665 123.416C482.602 123.039 481.736 122.626 481.065 122.179C480.394 121.718 479.904 121.208 479.597 120.648C479.289 120.089 479.136 119.46 479.136 118.761C479.136 117.965 479.317 117.28 479.681 116.706C480.044 116.119 480.561 115.665 481.232 115.344C481.903 115.022 482.693 114.861 483.602 114.861C484.342 114.861 484.958 114.945 485.447 115.113C485.936 115.267 486.341 115.427 486.663 115.595C486.984 115.763 487.257 115.847 487.481 115.847C487.662 115.847 487.802 115.777 487.9 115.637C488.012 115.497 488.096 115.274 488.152 114.966H488.99C488.962 115.274 488.941 115.623 488.927 116.015C488.913 116.392 488.899 116.874 488.886 117.461C488.886 118.048 488.886 118.81 488.886 119.747H488.047C487.907 118.517 487.467 117.538 486.726 116.811C485.985 116.07 485.048 115.7 483.916 115.7C483.077 115.7 482.42 115.91 481.945 116.329C481.484 116.734 481.253 117.294 481.253 118.006C481.253 118.482 481.379 118.908 481.631 119.285C481.882 119.663 482.295 120.019 482.868 120.355C483.455 120.69 484.231 121.04 485.195 121.403C486.789 121.99 487.928 122.654 488.613 123.395C489.312 124.122 489.661 125.024 489.661 126.1C489.661 127.4 489.207 128.427 488.298 129.182C487.404 129.923 486.188 130.294 484.65 130.294ZM493.896 130V129.182C494.595 129.154 495.112 129.098 495.448 129.015C495.797 128.931 496.028 128.763 496.14 128.511C496.251 128.26 496.307 127.882 496.307 127.379V117.776C496.307 117.273 496.251 116.902 496.14 116.665C496.028 116.413 495.797 116.238 495.448 116.14C495.112 116.042 494.595 115.987 493.896 115.973V115.155C494.651 115.169 495.629 115.183 496.832 115.197C498.034 115.211 499.439 115.218 501.046 115.218C501.591 115.218 502.122 115.218 502.64 115.218C503.171 115.204 503.667 115.197 504.128 115.197C504.604 115.183 505.037 115.169 505.428 115.155C505.442 115.868 505.477 116.574 505.533 117.273C505.589 117.972 505.673 118.67 505.785 119.369H504.925C504.743 118.531 504.513 117.867 504.233 117.377C503.954 116.888 503.604 116.546 503.185 116.35C502.765 116.14 502.234 116.035 501.591 116.035H498.74V127.484C498.74 127.945 498.775 128.295 498.844 128.532C498.928 128.77 499.096 128.931 499.348 129.015C499.599 129.084 499.963 129.119 500.438 129.119H501.235C502.101 129.119 502.807 128.994 503.353 128.742C503.912 128.476 504.38 128.029 504.757 127.4C505.149 126.771 505.505 125.897 505.827 124.779H506.665C506.568 125.66 506.491 126.533 506.435 127.4C506.379 128.253 506.351 129.119 506.351 130C505.694 129.972 504.925 129.958 504.044 129.958C503.178 129.944 502.164 129.937 501.004 129.937C499.411 129.937 498.013 129.944 496.811 129.958C495.622 129.958 494.651 129.972 493.896 130ZM498.069 122.934V122.137H501.78V122.934H498.069ZM502.556 125.639C502.5 124.968 502.388 124.437 502.22 124.045C502.053 123.654 501.808 123.374 501.486 123.206C501.179 123.025 500.766 122.934 500.249 122.934V122.137C500.962 122.137 501.486 121.927 501.822 121.508C502.171 121.089 502.395 120.397 502.493 119.432H503.248C503.192 120.257 503.164 120.893 503.164 121.34C503.178 121.774 503.185 122.172 503.185 122.535C503.185 122.829 503.185 123.123 503.185 123.416C503.199 123.696 503.213 124.017 503.227 124.381C503.255 124.73 503.283 125.149 503.311 125.639H502.556Z" fill="black"/>
<path d="M50.3518 35.1323C50.4675 37.1222 50.5376 39.1111 50.5998 41.1033C50.633 41.6654 50.6663 42.2276 50.7005 42.8067C50.797 46.9259 50.797 46.9259 49.5031 48.4768C48.4452 49.2773 48.4452 49.2773 47.3883 49.9026C44.8325 51.5276 43.5679 54.5668 42.6549 57.3516C41.9092 60.8229 41.8986 64.3308 41.8851 67.8644C41.8813 68.6371 41.8813 68.6371 41.8774 69.4255C41.8733 70.5122 41.8704 71.5989 41.8687 72.6857C41.8644 74.327 41.8507 75.9681 41.8368 77.6094C41.4914 89.0645 41.4914 89.0645 46.3819 99.0092C47.646 100.142 48.9386 101.111 50.3518 102.051C50.5019 103.283 50.5019 103.283 50.4809 104.834C50.4745 105.664 50.4745 105.664 50.468 106.511C50.4569 107.091 50.4458 107.672 50.4344 108.27C50.4278 108.86 50.4218 109.45 50.4163 110.04C50.4007 111.486 50.3789 112.932 50.3518 114.379C44.1719 112.734 39.4528 109.07 36.1413 103.549C35.8212 102.97 35.5059 102.388 35.1957 101.804C35.0538 101.548 34.9119 101.292 34.7657 101.028C31.1948 93.8158 32.0845 84.9307 32.1325 77.1087C32.1384 75.8097 32.1361 74.5108 32.1339 73.2118C32.1036 49.8412 32.1036 49.8412 40.2506 40.7026C42.5316 38.5013 47.0097 35.1323 50.3518 35.1323Z" fill="black"/>
<path d="M85.1831 35.1323C88.2205 36.0657 90.5597 37.2045 93.1193 39.0946C93.7877 39.5714 93.7877 39.5714 94.4696 40.0577C100.215 45.0613 102.29 52.5062 102.895 59.8238C103.008 61.9207 103.005 64.0164 102.995 66.1154C102.996 66.7778 102.997 67.4401 102.999 68.1024C103.001 69.4772 102.998 70.8518 102.992 72.2266C102.984 73.9654 102.988 75.704 102.996 77.4428C103.001 78.8065 103 80.1701 102.996 81.5338C102.995 82.174 102.996 82.8142 102.999 83.4543C103.035 92.8404 101.373 101.455 94.8829 108.655C92.2085 111.181 89.0082 113.938 85.1831 113.938C85.0801 112.095 85.0178 110.253 84.9626 108.408C84.933 107.888 84.9035 107.367 84.873 106.832C84.7873 103.013 84.7873 103.013 85.9326 101.505C86.8257 100.744 87.746 100.077 88.7103 99.4099C95.9025 90.8173 93.8221 71.965 92.8706 61.3387C92.3216 56.458 91.2576 52.8641 87.8285 49.2206C87.3618 48.9442 86.8952 48.6678 86.4145 48.383C85.3621 47.529 85.195 47.0919 84.9711 45.7305C84.9223 44.1255 84.9529 42.5426 85.0177 40.9382C85.0296 40.3812 85.0416 39.8242 85.0539 39.2503C85.085 37.8769 85.1285 36.505 85.1831 35.1323Z" fill="black"/>
<path d="M50.7927 51.4218C51.0836 51.4218 51.3746 51.4218 51.6745 51.4218C51.7716 51.9249 51.7716 51.9249 51.8708 52.4381C52.5777 55.6877 53.5901 58.0564 55.6426 60.6672C55.9222 61.0338 56.2018 61.4004 56.4899 61.7781C59.9845 65.9366 65.2586 68.7365 69.7807 71.6702C86.0707 82.3372 86.0707 82.3372 87.3875 88.4034C87.8773 96.2597 87.8773 96.2597 85.6239 99.4098C85.1874 99.7004 84.7509 99.9909 84.3012 100.29C84.2302 100.007 84.1591 99.7239 84.0859 99.4322C81.4466 90.6765 73.0536 85.9551 65.7649 81.377C62.885 79.5678 60.09 77.7284 57.4062 75.6359C56.9646 75.3045 56.523 74.973 56.068 74.6316C52.3889 71.7939 49.1161 68.278 47.7063 63.749C47.3385 59.4896 47.4553 55.9088 49.9384 52.3023C50.2203 52.0117 50.5022 51.7211 50.7927 51.4218Z" fill="#ECBB23"/>
<path d="M67.547 14C68.2921 14.7234 69.0249 15.4593 69.7515 16.2013C70.0634 16.4865 70.3752 16.7718 70.6966 17.0656C71.9529 19.1177 71.7466 21.0616 71.7153 23.4214C71.7156 23.9284 71.7158 24.4354 71.7161 24.9578C71.7149 26.6326 71.7011 28.307 71.6873 29.9817C71.684 31.1433 71.6815 32.3049 71.6798 33.4665C71.6743 36.2107 71.6598 38.9548 71.6421 41.6989C71.6224 44.8238 71.6127 47.9487 71.6038 51.0736C71.5854 57.5001 71.5544 63.9265 71.5151 70.3529C71.1249 70.1563 71.1249 70.1563 70.7268 69.9557C69.9098 69.5509 69.0831 69.1654 68.2545 68.7846C66.1105 67.654 64.0628 66.436 63.221 64.0596C62.6462 61.0008 62.7816 57.8917 62.852 54.7943C62.8546 53.7857 62.8549 52.777 62.8532 51.7683C62.856 49.6587 62.8797 47.5508 62.9194 45.4415C62.9694 42.7479 62.9766 40.0563 62.9693 37.3623C62.9669 35.2806 62.9824 33.1993 63.0038 31.1177C63.0128 30.1252 63.0173 29.1326 63.0172 28.1401C63.0409 18.7994 63.0409 18.7994 66.3112 15.1793C66.5735 14.9354 66.8358 14.6915 67.1061 14.4403C67.2516 14.295 67.3971 14.1497 67.547 14Z" fill="black"/>
<path d="M63.5788 82.6801C65.2714 83.5121 66.9042 84.4377 68.539 85.3766C68.8254 85.5406 69.1119 85.7047 69.407 85.8736C70.11 86.2762 70.8126 86.6794 71.5151 87.0826C71.597 92.7467 71.6596 98.4107 71.6978 104.075C71.7162 106.706 71.7411 109.336 71.7812 111.966C71.8196 114.507 71.8406 117.047 71.8497 119.588C71.8562 120.555 71.8689 121.522 71.888 122.49C72.0497 131.017 72.0497 131.017 69.7299 133.938C68.7473 134.902 68.7473 134.902 67.9879 135.511C65.7986 134.782 64.6944 133.07 63.5788 131.108C63.1743 129.462 63.1858 127.901 63.2285 126.213C63.228 125.74 63.2276 125.267 63.2271 124.78C63.2292 123.229 63.2532 121.679 63.2774 120.128C63.2832 119.048 63.2876 117.968 63.2907 116.887C63.3024 114.054 63.3327 111.22 63.3669 108.387C63.3986 105.492 63.4126 102.597 63.4281 99.7013C63.4612 94.0274 63.5132 88.3537 63.5788 82.6801Z" fill="black"/>
<path d="M74.6014 23.2454C74.8924 23.2454 75.1834 23.2454 75.4832 23.2454C76.0954 23.9114 76.0954 23.9114 76.7921 24.8361C77.0439 25.1679 77.2957 25.4996 77.5551 25.8413C77.8171 26.1923 78.0791 26.5434 78.349 26.905C78.7421 27.4239 78.7421 27.4239 79.143 27.9532C82.2074 32.0112 82.2074 32.0112 82.2028 33.9476C82.204 34.3347 82.2052 34.7217 82.2064 35.1205C82.2033 35.5439 82.2001 35.9673 82.1968 36.4035C82.1969 36.8503 82.1971 37.2971 82.1972 37.7574C82.1966 39.2368 82.1897 40.716 82.1828 42.1953C82.1812 43.22 82.1799 44.2447 82.179 45.2693C82.1757 47.9683 82.167 50.6672 82.1573 53.3662C82.1482 56.1195 82.1442 58.8727 82.1398 61.626C82.1303 67.0298 82.1153 72.4335 82.0967 77.8373C81.6364 77.571 81.176 77.3046 80.7017 77.0302C79.7283 76.4688 78.791 75.9796 77.7597 75.5251C76.2579 74.6878 75.5369 74.0137 74.6014 72.5542C73.7612 68.9487 74.0904 65.0956 74.1708 61.4239C74.179 60.3235 74.1853 59.223 74.1897 58.1225C74.2048 55.5277 74.2395 52.9337 74.2838 50.3392C74.3381 47.0934 74.3617 43.8474 74.3861 40.6011C74.4333 34.8155 74.5077 29.0305 74.6014 23.2454Z" fill="black"/>
<path d="M53.4381 76.0762C54.1755 76.3631 54.9097 76.6583 55.6426 76.9567C56.2661 77.2003 56.2661 77.2003 56.9022 77.4489C58.5062 78.3008 59.4022 79.0123 60.4925 80.4787C61.4105 83.8001 61.0546 87.4316 60.9661 90.8386C60.9571 91.8601 60.9502 92.8816 60.9454 93.9031C60.9269 96.5845 60.8793 99.2647 60.8255 101.946C60.7758 104.684 60.7538 107.423 60.7293 110.162C60.6774 115.53 60.5947 120.898 60.4925 126.266C59.029 124.811 57.6032 123.34 56.2213 121.808C55.8831 121.434 55.5449 121.061 55.1965 120.676C53.9878 119.277 53.3272 118.421 53.332 116.578C53.3308 116.22 53.3296 115.863 53.3284 115.494C53.3315 115.104 53.3347 114.713 53.338 114.311C53.3378 113.899 53.3377 113.486 53.3376 113.061C53.3382 111.696 53.3451 110.331 53.352 108.966C53.3536 108.021 53.3549 107.075 53.3558 106.129C53.3591 103.639 53.3678 101.148 53.3775 98.6579C53.3866 96.1171 53.3906 93.5763 53.395 91.0355C53.4045 86.049 53.4195 81.0626 53.4381 76.0762Z" fill="black"/>
<path d="M60.4925 22.8052C60.4925 35.7355 60.4925 48.6659 60.4925 61.9881C57.2392 60.3638 55.1895 57.4124 53.879 54.0635C51.8991 47.1212 51.3982 34.6854 54.8969 28.2826C58.7107 22.8052 58.7107 22.8052 60.4925 22.8052Z" fill="black"/>
<path d="M74.6014 90.6049C76.3345 91.4702 76.9285 92.0013 78.101 93.4665C78.3869 93.8161 78.6728 94.1657 78.9673 94.5259C79.2726 94.9754 79.5778 95.4249 79.8922 95.8879C80.0867 96.1601 80.2812 96.4323 80.4817 96.7127C82.6167 100.194 82.4918 103.922 82.481 107.881C82.4825 109.065 82.5169 110.246 82.5531 111.43C82.6021 115.09 82.5833 117.822 80.1988 120.732C79.5173 121.411 78.8275 122.082 78.1286 122.744C77.5279 123.495 76.9378 124.255 76.365 125.027C75.9348 125.595 75.4975 126.158 75.0423 126.706C74.8968 126.706 74.7513 126.706 74.6014 126.706C74.6014 114.793 74.6014 102.879 74.6014 90.6049Z" fill="black"/>
<path d="M50.7927 51.4218C51.0837 51.4218 51.3747 51.4218 51.6745 51.4218C51.7717 51.9249 51.7717 51.9249 51.8708 52.4381C52.579 55.6936 53.5945 58.0462 55.6426 60.6672C55.9609 61.0849 56.2792 61.5025 56.6071 61.9329C57.2846 62.7261 57.9724 63.4716 58.7289 64.1892C58.447 64.6251 58.1651 65.0609 57.8747 65.51C57.1739 66.721 56.8408 67.6678 56.7173 69.0596C56.5216 70.8181 56.077 71.9145 55.2017 73.4346C52.4758 71.9741 51.0972 69.848 49.47 67.271C49.2762 66.9946 49.0823 66.7183 48.8827 66.4335C47.0017 63.4004 47.2289 59.4019 47.9458 56.0135C48.5602 54.2304 49.4829 52.7718 50.7927 51.4218Z" fill="#EEC12F"/>
<path d="M58.288 64.1893C60.4353 65.2097 62.4301 66.3586 64.0197 68.1516C64.3417 69.5861 63.9846 70.7232 63.5788 72.114C63.4873 72.5424 63.3958 72.9709 63.3015 73.4124C62.7391 75.8675 62.7391 75.8675 62.2561 76.9568C61.3278 77.5364 61.3278 77.5364 60.4925 77.8373C59.6905 77.2819 58.892 76.7214 58.0951 76.1588C57.4276 75.6915 57.4276 75.6915 56.7466 75.2147C55.6426 74.3153 55.6426 74.3153 55.2017 72.9945C55.4956 72.2607 55.7896 71.527 56.0835 70.7932C56.1381 70.2302 56.1926 69.6672 56.2488 69.0872C56.4477 67.1162 57.2197 65.841 58.288 64.1893Z" fill="#AE7F0A"/>
<path d="M83.4194 82.2399C87.009 85.8242 87.5068 88.1555 87.5302 93.0512C87.4915 95.6037 87.1387 97.2923 85.6239 99.4099C85.1874 99.7005 84.7509 99.991 84.3012 100.29C84.179 99.951 84.0568 99.6117 83.9309 99.262C83.7712 98.8205 83.6115 98.3789 83.447 97.924C83.2884 97.4848 83.1298 97.0455 82.9665 96.5929C82.5713 95.4762 82.5713 95.4762 82.0967 94.5671C82.5332 94.5671 82.9697 94.5671 83.4194 94.5671C83.4194 90.4991 83.4194 86.4311 83.4194 82.2399Z" fill="#F1C32C"/>
<path d="M79.8922 79.5983C81.3765 80.119 82.4774 80.5174 83.4194 81.7996C83.5696 83.1215 83.5696 83.1215 83.5486 84.7214C83.5444 85.2932 83.5401 85.865 83.5357 86.4541C83.5246 87.058 83.5135 87.6619 83.5021 88.2658C83.4955 88.8749 83.4894 89.484 83.484 90.0931C83.4684 91.5846 83.4466 93.0757 83.4194 94.567C81.7224 94.2204 81.1124 93.6809 80.0025 92.3382C79.7319 92.0153 79.4614 91.6924 79.1826 91.3597C78.9803 91.1105 78.778 90.8614 78.5695 90.6047C78.8605 90.4594 79.1515 90.3141 79.4513 90.1644C79.449 89.8756 79.4467 89.5869 79.4443 89.2893C79.4352 87.9851 79.4294 86.6809 79.4238 85.3766C79.4201 84.9221 79.4164 84.4675 79.4126 83.9991C79.4104 83.3479 79.4104 83.3479 79.4083 82.6835C79.406 82.2823 79.4036 81.8812 79.4013 81.4679C79.4513 80.4788 79.4513 80.4788 79.8922 79.5983Z" fill="#CA9110"/>
<path d="M60.0516 65.5101C60.7882 65.9051 60.7882 65.9051 61.5396 66.3081C61.8158 66.4562 62.0921 66.6043 62.3766 66.757C63.1379 67.2712 63.1379 67.2712 64.0197 68.5919C63.902 69.7875 63.7359 70.8883 63.4961 72.059C63.4121 72.5263 63.4121 72.5263 63.3265 73.0031C62.9652 74.857 62.4727 76.2616 61.3743 77.8373C60.089 77.3645 59.2676 77.0545 58.288 76.0763C58.5767 75.8788 58.8654 75.6813 59.1629 75.4778C60.5266 73.6938 60.2412 71.9802 60.1618 69.8026C60.1499 69.1846 60.1499 69.1846 60.1377 68.5541C60.1169 67.539 60.088 66.5248 60.0516 65.5101Z" fill="#BD8C11"/>
<path d="M83.4194 82.2399C85.183 84.0009 85.183 84.0009 85.3902 85.3589C85.3838 85.8789 85.3774 86.399 85.3708 86.9348C85.3671 87.5012 85.3634 88.0676 85.3596 88.6511C85.3532 88.9445 85.3468 89.2379 85.3403 89.5402C85.3208 90.4398 85.3132 91.3388 85.3079 92.2385C85.2572 96.6202 85.2572 96.6202 84.7421 97.6489C84.8653 98.387 85.0103 99.122 85.183 99.8502C84.7465 100.068 84.7465 100.068 84.3012 100.29C84.179 99.951 84.0568 99.6117 83.9309 99.262C83.7712 98.8205 83.6115 98.3789 83.447 97.924C83.2884 97.4848 83.1298 97.0455 82.9665 96.5929C82.5713 95.4762 82.5713 95.4762 82.0967 94.5671C82.5332 94.5671 82.9697 94.5671 83.4194 94.5671C83.4194 90.4991 83.4194 86.4311 83.4194 82.2399Z" fill="#E1AC20"/>
<path d="M55.6426 61.5479C56.6611 62.2743 57.6796 63.0007 58.7289 63.7491C58.447 64.2576 58.1651 64.7661 57.8747 65.29C57.2199 66.584 56.8457 67.6439 56.7173 69.0873C56.5203 70.8294 56.0695 71.9278 55.2017 73.4348C53.879 72.5543 53.879 72.5543 53.4381 71.3986C53.4381 69.517 54.0758 68.6551 55.1449 67.1543C55.7228 66.4195 55.7228 66.4195 55.6426 65.5102C55.9336 65.5102 56.2246 65.5102 56.5244 65.5102C56.6132 63.9141 56.4617 62.9281 55.6426 61.5479Z" fill="#DCAD22"/>
<path d="M62.2561 66.8309C62.8381 67.4121 63.4201 67.9932 64.0197 68.592C63.9648 69.8647 63.8334 70.8651 63.5513 72.0865C63.4913 72.3961 63.4314 72.7057 63.3696 73.0246C62.9863 74.8557 62.4387 76.2989 61.3743 77.8374C60.7923 77.5468 60.2103 77.2562 59.6107 76.9569C60.0472 76.8116 60.4837 76.6663 60.9334 76.5166C61.3699 73.3203 61.8064 70.1241 62.2561 66.8309Z" fill="#D7A619"/>
<path d="M81.2149 80.4789C82.5915 81.8534 82.4853 83.4618 82.5376 85.3217C82.4661 87.8206 82.283 90.3136 82.0967 92.8061C81.2149 92.3658 81.2149 92.3658 80.943 91.586C80.7656 90.5559 80.7169 89.5982 80.7154 88.5531C80.7149 88.1675 80.7143 87.7819 80.7137 87.3846C80.7154 86.9853 80.7171 86.5861 80.7189 86.1747C80.7172 85.7738 80.7155 85.3728 80.7137 84.9597C80.7143 84.5746 80.7149 84.1896 80.7154 83.7929C80.7159 83.4421 80.7164 83.0913 80.7169 82.7299C80.774 81.7997 80.774 81.7997 81.2149 80.4789Z" fill="#B87F06"/>
<path d="M50.7926 51.4218C51.0836 51.4218 51.3746 51.4218 51.6745 51.4218C52.2623 53.7698 52.8502 56.1178 53.4381 58.4659C52.1559 57.4888 51.2542 56.7358 50.3517 55.3841C49.7698 55.8199 49.1878 56.2558 48.5881 56.7048C48.7694 54.3975 49.135 53.0769 50.7926 51.4218Z" fill="#D4A632"/>
<path d="M58.288 64.1893C58.7245 64.3346 59.161 64.4799 59.6107 64.6296C59.393 65.1443 59.1754 65.6591 58.9511 66.1894C58.6657 66.871 58.3803 67.5526 58.0951 68.2342C57.9516 68.5727 57.8081 68.9112 57.6602 69.26C56.9616 70.9358 56.3415 72.5047 56.0835 74.3153C55.7925 74.17 55.5015 74.0247 55.2017 73.875C55.4063 73.2212 55.4063 73.2212 55.615 72.5542C55.9623 71.3681 56.1502 70.2625 56.2488 69.0322C56.4499 67.0924 57.2366 65.8149 58.288 64.1893Z" fill="#BC8E11"/>
<path d="M62.2561 69.4723C62.5471 69.4723 62.8381 69.4723 63.1379 69.4723C62.9924 70.6346 62.8469 71.7968 62.697 72.9943C62.406 72.9943 62.115 72.9943 61.8152 72.9943C61.8243 73.5482 61.8334 74.1021 61.8428 74.6728C61.8632 75.9179 61.7786 76.6261 61.3743 77.8372C60.7923 77.5466 60.2103 77.256 59.6107 76.9567C60.0472 76.8114 60.4837 76.6661 60.9334 76.5164C60.992 76.1186 61.0505 75.7207 61.1108 75.3109C61.1887 74.7916 61.2665 74.2723 61.3468 73.7373C61.4235 73.2214 61.5002 72.7055 61.5793 72.174C61.8152 70.7931 61.8152 70.7931 62.2561 69.4723Z" fill="#CD9C17"/>
<path d="M72.8378 85.3217C73.4198 85.3217 74.0018 85.3217 74.6014 85.3217C74.7469 85.7575 74.8924 86.1934 75.0423 86.6424C75.8615 87.2802 75.8615 87.2802 76.8334 87.8256C77.1568 88.018 77.4802 88.2104 77.8134 88.4086C78.1877 88.624 78.1877 88.624 78.5695 88.8437C78.424 89.2796 78.2785 89.7154 78.1286 90.1645C77.3279 89.5244 76.5291 88.8819 75.7312 88.2384C75.0637 87.7021 75.0637 87.7021 74.3826 87.1549C73.2787 86.2022 73.2787 86.2022 72.8378 85.3217Z" fill="#DCAA25"/>
<path d="M82.0968 85.3217C82.2423 85.3217 82.3878 85.3217 82.5377 85.3217C82.5377 88.3726 82.5377 91.4236 82.5377 94.5671C81.9557 94.1312 81.3737 93.6954 80.774 93.2463C80.774 92.9557 80.774 92.6651 80.774 92.3658C81.065 92.3658 81.356 92.3658 81.6559 92.3658C81.8014 90.0412 81.9468 87.7167 82.0968 85.3217Z" fill="#BF870F"/>
<path d="M56.0835 68.1516C56.229 68.1516 56.3745 68.1516 56.5244 68.1516C56.678 70.2986 56.2673 71.5726 55.2017 73.4347C54.9107 73.2894 54.6197 73.1441 54.3199 72.9944C54.7057 70.463 54.7057 70.463 55.2017 69.4724C55.4927 69.4724 55.7837 69.4724 56.0835 69.4724C56.0835 69.0365 56.0835 68.6007 56.0835 68.1516Z" fill="#CFA21B"/>
<path d="M55.6426 66.8309C56.0835 67.7114 56.0835 67.7114 55.7408 68.8568C55.572 69.2961 55.4032 69.7353 55.2292 70.1879C54.9777 70.8502 54.9777 70.8502 54.7212 71.5259C54.5887 71.8652 54.4563 72.2046 54.3199 72.5543C53.4002 70.9308 53.4002 70.9308 53.7412 69.6926C54.2931 68.6429 54.8937 67.7487 55.6426 66.8309Z" fill="#E4B824"/>
<path d="M64.0198 68.1516C64.6017 68.5875 65.1837 69.0233 65.7834 69.4724C65.3469 69.6903 65.3469 69.6903 64.9016 69.9126C64.5834 70.6363 64.2872 71.3701 64.0198 72.1139C63.8743 72.1139 63.7288 72.1139 63.5789 72.1139C63.5358 69.4053 63.5358 69.4053 63.5789 68.5919C63.7244 68.4466 63.8699 68.3013 64.0198 68.1516ZM63.138 72.1139C63.2835 72.5498 63.4289 72.9856 63.5789 73.4347C63.1424 73.6526 63.1424 73.6526 62.6971 73.875C62.8425 73.2938 62.988 72.7127 63.138 72.1139Z" fill="#E0B123"/>
<path d="M79.8922 86.6426C80.2323 87.7463 80.3295 88.5833 80.3056 89.7519C80.219 91.1303 80.219 91.1303 81.2149 92.3659C80.7784 92.3659 80.3419 92.3659 79.8922 92.3659C79.1482 91.2653 79.1482 91.2653 78.5695 90.1646C78.8605 90.1646 79.1515 90.1646 79.4513 90.1646C79.4422 89.7469 79.4331 89.3292 79.4238 88.8989C79.4513 87.5231 79.4513 87.5231 79.8922 86.6426Z" fill="#CB9615"/>
<path d="M50.7927 68.5919C51.5202 68.5919 52.2476 68.5919 52.9972 68.5919C52.9972 69.6089 52.9972 70.6259 52.9972 71.6737C52.2437 70.959 51.5094 70.2239 50.7927 69.4724C50.7927 69.1819 50.7927 68.8913 50.7927 68.5919Z" fill="#F4D451"/>
<path d="M58.288 64.1893C58.7245 64.3346 59.161 64.4799 59.6107 64.6296C58.3012 66.373 58.3012 66.373 56.9653 68.1516C56.9653 66.5253 57.5304 65.6077 58.288 64.1893Z" fill="#C79719"/>
<path d="M51.6745 54.0635C52.6399 55.5096 52.9963 56.7961 53.4381 58.4661C51.3217 56.9489 51.3217 56.9489 50.8753 55.7144C50.8481 55.4602 50.8208 55.2059 50.7927 54.944C51.0837 54.944 51.3747 54.944 51.6745 54.944C51.6745 54.6534 51.6745 54.3629 51.6745 54.0635Z" fill="#DDAE2C"/>
<path d="M62.697 74.3153C62.8425 74.3153 62.988 74.3153 63.1379 74.3153C62.9924 75.7682 62.8469 77.221 62.697 78.7179C62.115 78.4273 61.533 78.1367 60.9334 77.8374C61.1426 77.5014 61.3517 77.1654 61.5672 76.8193C62.3007 75.6519 62.3007 75.6519 62.697 74.3153Z" fill="#DFB322"/>
<path d="M49.9108 52.7426C49.9108 53.1784 49.9108 53.6143 49.9108 54.0633C50.0459 54.6532 50.1906 55.2411 50.3517 55.8244C49.4788 56.2602 49.4788 56.2602 48.5881 56.7049C48.9188 53.7331 48.9188 53.7331 49.9108 52.7426Z" fill="#D6A51F"/>
<path d="M76.8059 76.9568C77.9699 77.6832 79.1339 78.4096 80.3331 79.1581C79.8966 79.4486 79.4601 79.7392 79.0104 80.0386C79.0104 79.748 79.0104 79.4574 79.0104 79.1581C78.5739 79.1581 78.1374 79.1581 77.6877 79.1581C77.3967 78.4316 77.1057 77.7052 76.8059 76.9568Z" fill="#DDA824"/>
<path d="M62.2561 66.8309C62.8381 67.4121 63.4201 67.9932 64.0197 68.592C63.5832 69.2457 63.5832 69.2457 63.1379 69.9127C62.8469 69.7674 62.5559 69.6222 62.2561 69.4725C62.2561 68.6008 62.2561 67.7291 62.2561 66.8309Z" fill="#D0A320"/>
</g>
<defs>
<clipPath id="clip0_2106_163">
<rect width="532" height="149" fill="white"/>
</clipPath>
</defs>
</svg>
