<svg width="520" height="524" viewBox="0 0 520 524" fill="none" xmlns="http://www.w3.org/2000/svg">
<g filter="url(#filter0_f_2690_1067)">
<g filter="url(#filter1_d_2690_1067)">
<path d="M23.3304 262.825C23.315 304.789 34.25 345.751 55.0353 381.857L21.3359 505.23L147.258 472.124C181.951 491.095 221.014 501.093 260.765 501.108H260.868C391.78 501.108 498.347 394.288 498.403 263.018C498.424 199.397 473.739 139.577 428.894 94.5745C384.043 49.5732 324.406 24.7777 260.868 24.7495C129.935 24.7495 23.3824 131.553 23.3304 262.825V262.825Z" fill="black"/>
</g>
<path d="M23.3304 262.825C23.315 304.789 34.25 345.751 55.0353 381.857L21.3359 505.23L147.258 472.124C181.951 491.095 221.014 501.093 260.765 501.108H260.868C391.78 501.108 498.347 394.288 498.403 263.018C498.424 199.397 473.739 139.577 428.894 94.5745C384.043 49.5732 324.406 24.7777 260.868 24.7495C129.935 24.7495 23.3824 131.553 23.3304 262.825V262.825Z" fill="black" fill-opacity="0.2"/>
</g>
<path d="M31.856 260.346C31.8441 300.705 42.389 340.113 62.442 374.848L29.9375 493.532L151.392 461.686C184.854 479.923 222.529 489.548 260.872 489.561H260.974C387.239 489.561 490.023 386.812 490.075 260.525C490.1 199.328 466.29 141.786 423.03 98.4945C379.778 55.2035 322.254 31.3501 260.966 31.3228C134.686 31.3228 31.9072 134.063 31.856 260.346Z" fill="url(#paint0_linear_2690_1067)"/>
<path d="M23.6724 260.267C23.6571 302.081 34.5827 342.899 55.3492 378.879L21.6797 501.815L147.491 468.827C182.154 487.73 221.182 497.693 260.899 497.708H261.002C391.798 497.708 498.272 391.265 498.327 260.46C498.35 197.062 473.686 137.453 428.88 92.6091C384.07 47.7665 324.484 23.0597 261.002 23.0307C130.184 23.0307 23.7245 129.457 23.6716 260.267H23.6724ZM98.5941 372.684L93.8977 365.225C74.1511 333.827 63.7264 297.542 63.7435 260.283C63.7853 151.557 152.27 63.1035 261.077 63.1035C313.767 63.1248 363.288 83.6626 400.535 120.934C437.777 158.204 458.272 207.75 458.256 260.444C458.21 369.173 369.723 457.639 261.003 457.639H260.926C225.524 457.621 190.806 448.116 160.527 430.147L153.32 425.876L78.6614 445.45L98.5941 372.684Z" fill="url(#paint1_linear_2690_1067)"/>
<path fill-rule="evenodd" clip-rule="evenodd" d="M201.691 161.09C197.249 151.216 192.573 151.017 188.347 150.844C184.891 150.696 180.933 150.705 176.983 150.705C173.03 150.705 166.604 152.19 161.171 158.124C155.735 164.058 140.414 178.403 140.414 207.578C140.414 236.757 161.665 264.947 164.628 268.907C167.592 272.862 205.652 334.645 265.924 358.415C316.017 378.168 326.211 374.239 337.083 373.251C347.956 372.262 372.168 358.909 377.109 345.062C382.051 331.217 382.051 319.35 380.569 316.869C379.086 314.397 375.133 312.915 369.202 309.949C363.271 306.984 334.118 292.636 328.681 290.659C323.245 288.683 319.291 287.694 315.338 293.631C311.384 299.562 300.027 312.915 296.566 316.87C293.107 320.832 289.648 321.326 283.717 318.361C277.786 315.386 258.687 309.131 236.031 288.93C218.402 273.213 206.502 253.803 203.04 247.867C199.581 241.935 202.671 238.723 205.645 235.767C208.308 233.11 211.576 228.845 214.541 225.382C217.5 221.92 218.489 219.448 220.466 215.494C222.442 211.534 221.454 208.071 219.972 205.106C218.489 202.141 206.964 172.814 201.691 161.09Z" fill="white"/>
<defs>
<filter id="filter0_f_2690_1067" x="17.9222" y="21.3358" width="483.898" height="487.308" filterUnits="userSpaceOnUse" color-interpolation-filters="sRGB">
<feFlood flood-opacity="0" result="BackgroundImageFix"/>
<feBlend mode="normal" in="SourceGraphic" in2="BackgroundImageFix" result="shape"/>
<feGaussianBlur stdDeviation="1.70686" result="effect1_foregroundBlur_2690_1067"/>
</filter>
<filter id="filter1_d_2690_1067" x="0.00021553" y="7.41482e-05" width="519.742" height="523.152" filterUnits="userSpaceOnUse" color-interpolation-filters="sRGB">
<feFlood flood-opacity="0" result="BackgroundImageFix"/>
<feColorMatrix in="SourceAlpha" type="matrix" values="0 0 0 0 0 0 0 0 0 0 0 0 0 0 0 0 0 0 127 0" result="hardAlpha"/>
<feOffset dy="-3.41372"/>
<feGaussianBlur stdDeviation="10.6679"/>
<feComposite in2="hardAlpha" operator="out"/>
<feColorMatrix type="matrix" values="0 0 0 0 0 0 0 0 0 0 0 0 0 0 0 0 0 0 0.21 0"/>
<feBlend mode="normal" in2="BackgroundImageFix" result="effect1_dropShadow_2690_1067"/>
<feBlend mode="normal" in="SourceGraphic" in2="effect1_dropShadow_2690_1067" result="shape"/>
</filter>
<linearGradient id="paint0_linear_2690_1067" x1="260.005" y1="493.533" x2="260.005" y2="31.3224" gradientUnits="userSpaceOnUse">
<stop stop-color="#20B038"/>
<stop offset="1" stop-color="#60D66A"/>
</linearGradient>
<linearGradient id="paint1_linear_2690_1067" x1="260.005" y1="501.816" x2="260.005" y2="23.031" gradientUnits="userSpaceOnUse">
<stop stop-color="#F9F9F9"/>
<stop offset="1" stop-color="white"/>
</linearGradient>
</defs>
</svg>
